<?xml version="1.0" encoding="UTF-8" standalone="no"?>
<!-- Created with Inkscape (http://www.inkscape.org/) -->

<svg
   xmlns:dc="http://purl.org/dc/elements/1.1/"
   xmlns:cc="http://creativecommons.org/ns#"
   xmlns:rdf="http://www.w3.org/1999/02/22-rdf-syntax-ns#"
   xmlns:svg="http://www.w3.org/2000/svg"
   xmlns="http://www.w3.org/2000/svg"
   xmlns:sodipodi="http://sodipodi.sourceforge.net/DTD/sodipodi-0.dtd"
   xmlns:inkscape="http://www.inkscape.org/namespaces/inkscape"
   width="210mm"
   height="297mm"
   viewBox="0 0 210 297"
   version="1.1"
   id="svg8"
   inkscape:version="0.92.4 (5da689c313, 2019-01-14)"
   sodipodi:docname="angklung.svg"
   inkscape:export-filename="C:\Users\RAIHAN SETYO WIBOWO\Desktop\KBKM\gambar\senjata.png"
   inkscape:export-xdpi="95.699997"
   inkscape:export-ydpi="95.699997">
  <defs
     id="defs2" />
  <sodipodi:namedview
     id="base"
     pagecolor="#ffffff"
     bordercolor="#666666"
     borderopacity="1.0"
     inkscape:pageopacity="0.0"
     inkscape:pageshadow="2"
     inkscape:zoom="0.49497475"
     inkscape:cx="402.21429"
     inkscape:cy="610.16233"
     inkscape:document-units="mm"
     inkscape:current-layer="layer3"
     showgrid="false"
     inkscape:window-width="1366"
     inkscape:window-height="705"
     inkscape:window-x="-8"
     inkscape:window-y="-8"
     inkscape:window-maximized="1" />
  <metadata
     id="metadata5">
    <rdf:RDF>
      <cc:Work
         rdf:about="">
        <dc:format>image/svg+xml</dc:format>
        <dc:type
           rdf:resource="http://purl.org/dc/dcmitype/StillImage" />
        <dc:title />
      </cc:Work>
    </rdf:RDF>
  </metadata>
  <g
     inkscape:label="Layer 1"
     inkscape:groupmode="layer"
     id="layer1" />
  <g
     inkscape:groupmode="layer"
     id="layer2"
     inkscape:label="Layer 2" />
  <g
     inkscape:groupmode="layer"
     id="layer3"
     inkscape:label="Layer 3">
    <g
       id="g1093"
       inkscape:export-xdpi="95.699997"
       inkscape:export-ydpi="95.699997">
      <path
         d="M 170.8603,150.13002 A 70.718285,66.441971 0 0 1 100.26606,216.57189 70.718285,66.441971 0 0 1 29.424164,150.3631 70.718285,66.441971 0 0 1 99.769885,83.688969 70.718285,66.441971 0 0 1 170.85856,149.66385"
         sodipodi:open="true"
         sodipodi:end="6.2761691"
         sodipodi:start="0"
         sodipodi:ry="66.441971"
         sodipodi:rx="70.718285"
         sodipodi:cy="150.13002"
         sodipodi:cx="100.14201"
         sodipodi:type="arc"
         id="path3713"
         style="opacity:0.70899999;fill:#e5e4e3;fill-opacity:1;fill-rule:nonzero;stroke:#000000;stroke-width:1.68192661;stroke-linecap:round;stroke-linejoin:round;stroke-miterlimit:4;stroke-dasharray:none;stroke-dashoffset:0;stroke-opacity:1" />
      <rect
         y="141.61542"
         x="97.380974"
         height="3.4745035"
         width="33.876064"
         id="rect65-0-76-2"
         style="fill:#d4aa00;fill-rule:evenodd;stroke:#000000;stroke-width:0.09412762;stroke-linejoin:round;stroke-opacity:1" />
      <rect
         y="119.69167"
         x="69.123352"
         height="3.476774"
         width="61.66235"
         id="rect65-0-76"
         style="fill:#d4aa00;fill-rule:evenodd;stroke:#000000;stroke-width:0.127;stroke-linejoin:round;stroke-miterlimit:4;stroke-dasharray:none;stroke-opacity:1" />
      <rect
         transform="rotate(-90)"
         y="70.910942"
         x="-190.29568"
         height="3.4745035"
         width="85.810204"
         id="rect65-0"
         style="fill:#d4aa00;fill-rule:evenodd;stroke:#000000;stroke-width:0.14980975;stroke-linejoin:round;stroke-opacity:1" />
      <rect
         transform="rotate(-90)"
         y="99.256302"
         x="-190.29568"
         height="3.4745035"
         width="85.810204"
         id="rect65-0-1"
         style="fill:#d4aa00;fill-rule:evenodd;stroke:#000000;stroke-width:0.14980975;stroke-linejoin:round;stroke-opacity:1" />
      <rect
         transform="rotate(-90)"
         y="126.01412"
         x="-190.29568"
         height="3.4745035"
         width="85.810204"
         id="rect65-0-7"
         style="fill:#d4aa00;fill-rule:evenodd;stroke:#000000;stroke-width:0.14980975;stroke-linejoin:round;stroke-opacity:1" />
      <path
         inkscape:connector-curvature="0"
         id="path981-7"
         d="m 83.079172,174.15323 -0.18899,-65.57406 c 0,0 1.42261,-0.2743 2.35805,0.94236 0.93545,1.21664 2.2718,1.48701 2.13816,3.9203 -0.13364,2.43331 0.4009,23.11635 0.4009,23.11635 0,0 -0.13363,2.29812 1.20272,2.70366 1.33634,0.40556 2.80633,0 3.74177,0.13519 0.93544,0.13518 0.93544,35.01247 0.93544,35.01247 z"
         style="fill:#554400;stroke:#000000;stroke-width:0.26611185px;stroke-linecap:butt;stroke-linejoin:miter;stroke-opacity:1" />
      <path
         inkscape:connector-curvature="0"
         id="path981-2-1"
         d="m 112.27563,174.295 -0.18899,-43.29374 c 0,0 1.42261,-0.1811 2.35806,0.62218 0.93544,0.80325 2.27179,0.98176 2.13815,2.58828 -0.13363,1.60654 0.40091,15.26203 0.40091,15.26203 0,0 -0.13364,1.51728 1.20271,1.78503 1.33635,0.26776 2.80633,0 3.74177,0.0893 0.93544,0.0892 0.93544,23.11616 0.93544,23.11616 z"
         style="fill:#554400;stroke:#000000;stroke-width:0.21622741px;stroke-linecap:butt;stroke-linejoin:miter;stroke-opacity:1" />
      <rect
         y="174.30986"
         x="64.32254"
         height="12.561667"
         width="74.033661"
         id="rect65"
         style="fill:#d4aa00;fill-rule:evenodd;stroke:#000000;stroke-width:0.26499999;stroke-linejoin:round;stroke-miterlimit:4;stroke-dasharray:none;stroke-opacity:1" />
      <path
         d="m 67.752829,180.6595 a 3.7196639,6.3536897 0 0 1 -3.71314,6.35368 3.7196639,6.3536897 0 0 1 -3.726165,-6.33139 3.7196639,6.3536897 0 0 1 3.700068,-6.37589 3.7196639,6.3536897 0 0 1 3.739145,6.30902"
         sodipodi:open="true"
         sodipodi:end="6.2761691"
         sodipodi:start="0"
         sodipodi:ry="6.3536897"
         sodipodi:rx="3.7196639"
         sodipodi:cy="180.6595"
         sodipodi:cx="64.033165"
         sodipodi:type="arc"
         id="path945"
         style="opacity:1;fill:#aa8800;fill-opacity:1;fill-rule:evenodd;stroke:#000000;stroke-width:0.12835003;stroke-linecap:round;stroke-linejoin:round;stroke-miterlimit:4;stroke-dasharray:none;stroke-dashoffset:0;stroke-opacity:1" />
      <path
         d="m 141.94482,180.64597 a 3.7196639,6.2515712 0 0 1 -3.71314,6.25156 3.7196639,6.2515712 0 0 1 -3.72616,-6.22963 3.7196639,6.2515712 0 0 1 3.70007,-6.27342 3.7196639,6.2515712 0 0 1 3.73914,6.20762"
         sodipodi:open="true"
         sodipodi:end="6.2761691"
         sodipodi:start="0"
         sodipodi:ry="6.2515712"
         sodipodi:rx="3.7196639"
         sodipodi:cy="180.64597"
         sodipodi:cx="138.22516"
         sodipodi:type="arc"
         id="path945-5"
         style="opacity:1;fill:#d4aa00;fill-opacity:1;fill-rule:evenodd;stroke:#000000;stroke-width:0.227;stroke-linecap:round;stroke-linejoin:round;stroke-miterlimit:4;stroke-dasharray:none;stroke-dashoffset:0;stroke-opacity:1" />
      <rect
         y="174.43584"
         x="132.02922"
         height="12.260983"
         width="6.2828135"
         id="rect65-3"
         style="fill:#d4aa00;fill-rule:evenodd;stroke:none;stroke-width:0.07626888;stroke-linejoin:round;stroke-miterlimit:4;stroke-dasharray:none;stroke-opacity:1" />
      <path
         inkscape:connector-curvature="0"
         id="path981-2"
         d="m 111.21729,174.295 -0.18899,-43.29374 c 0,0 1.42261,-0.1811 2.35806,0.62218 0.93544,0.80325 2.27179,0.98176 2.13815,2.58828 -0.13363,1.60654 0.40091,15.26203 0.40091,15.26203 0,0 -0.13364,1.51728 1.20271,1.78503 1.33635,0.26776 2.80633,0 3.74177,0.0893 0.93544,0.0892 0.93544,23.11616 0.93544,23.11616 z"
         style="fill:#aa8800;stroke:#000000;stroke-width:0.2162274px;stroke-linecap:butt;stroke-linejoin:miter;stroke-opacity:1" />
      <path
         inkscape:connector-curvature="0"
         id="path981"
         d="m 82.020832,174.15323 -0.188989,-65.57406 c 0,0 1.422614,-0.2743 2.358057,0.94236 0.935442,1.21664 2.271792,1.48701 2.138156,3.9203 -0.133636,2.43331 0.400904,23.11635 0.400904,23.11635 0,0 -0.133635,2.29812 1.202714,2.70366 1.336347,0.40556 2.80633,0 3.741772,0.13519 0.935442,0.13518 0.935442,35.01247 0.935442,35.01247 z"
         style="fill:#aa8800;stroke:#000000;stroke-width:0.26611185px;stroke-linecap:butt;stroke-linejoin:miter;stroke-opacity:1" />
    </g>
  </g>
</svg>
