<?xml version="1.0" encoding="UTF-8" standalone="no"?>
<!-- Created with Inkscape (http://www.inkscape.org/) -->

<svg
   xmlns:dc="http://purl.org/dc/elements/1.1/"
   xmlns:cc="http://creativecommons.org/ns#"
   xmlns:rdf="http://www.w3.org/1999/02/22-rdf-syntax-ns#"
   xmlns:svg="http://www.w3.org/2000/svg"
   xmlns="http://www.w3.org/2000/svg"
   xmlns:sodipodi="http://sodipodi.sourceforge.net/DTD/sodipodi-0.dtd"
   xmlns:inkscape="http://www.inkscape.org/namespaces/inkscape"
   width="210mm"
   height="297mm"
   viewBox="0 0 210 297"
   version="1.1"
   id="svg8"
   inkscape:version="0.92.4 (5da689c313, 2019-01-14)"
   sodipodi:docname="baju.svg"
   inkscape:export-filename="C:\Users\RAIHAN SETYO WIBOWO\Desktop\KBKM\gambar\senjata.png"
   inkscape:export-xdpi="95.699997"
   inkscape:export-ydpi="95.699997">
  <defs
     id="defs2">
    <filter
       inkscape:collect="always"
       style="color-interpolation-filters:sRGB"
       id="filter1438"
       x="-0.03411376"
       width="1.0682275"
       y="-0.0072805117"
       height="1.014561">
      <feGaussianBlur
         inkscape:collect="always"
         stdDeviation="0.051687163"
         id="feGaussianBlur1440" />
    </filter>
    <filter
       inkscape:collect="always"
       style="color-interpolation-filters:sRGB"
       id="filter1438-5"
       x="-0.034113761"
       width="1.0682275"
       y="-0.0072805118"
       height="1.0145611">
      <feGaussianBlur
         inkscape:collect="always"
         stdDeviation="0.051687163"
         id="feGaussianBlur1440-4" />
    </filter>
    <filter
       inkscape:collect="always"
       style="color-interpolation-filters:sRGB"
       id="filter1875"
       x="-0.34286034"
       width="1.6857207"
       y="-0.24043049"
       height="1.480861">
      <feGaussianBlur
         inkscape:collect="always"
         stdDeviation="0.68888774"
         id="feGaussianBlur1877" />
    </filter>
  </defs>
  <sodipodi:namedview
     id="base"
     pagecolor="#ffffff"
     bordercolor="#666666"
     borderopacity="1.0"
     inkscape:pageopacity="0.0"
     inkscape:pageshadow="2"
     inkscape:zoom="0.49497475"
     inkscape:cx="266.34904"
     inkscape:cy="615.44766"
     inkscape:document-units="mm"
     inkscape:current-layer="layer2"
     showgrid="false"
     inkscape:window-width="1366"
     inkscape:window-height="705"
     inkscape:window-x="-8"
     inkscape:window-y="-8"
     inkscape:window-maximized="1"
     showguides="true" />
  <metadata
     id="metadata5">
    <rdf:RDF>
      <cc:Work
         rdf:about="">
        <dc:format>image/svg+xml</dc:format>
        <dc:type
           rdf:resource="http://purl.org/dc/dcmitype/StillImage" />
        <dc:title />
      </cc:Work>
    </rdf:RDF>
  </metadata>
  <g
     inkscape:label="Layer 1"
     inkscape:groupmode="layer"
     id="layer1" />
  <g
     inkscape:groupmode="layer"
     id="layer2"
     inkscape:label="Layer 2">
    <g
       id="g1927"
       inkscape:export-xdpi="95.699997"
       inkscape:export-ydpi="95.699997">
      <path
         d="M 180.47891,124.03198 A 70.718285,66.441971 0 0 1 109.88467,190.47385 70.718285,66.441971 0 0 1 39.042778,124.26507 70.718285,66.441971 0 0 1 109.3885,57.590931 70.718285,66.441971 0 0 1 180.47717,123.56582"
         sodipodi:open="true"
         sodipodi:end="6.2761691"
         sodipodi:start="0"
         sodipodi:ry="66.441971"
         sodipodi:rx="70.718285"
         sodipodi:cy="124.03198"
         sodipodi:cx="109.76063"
         sodipodi:type="arc"
         id="path3713"
         style="opacity:0.70899999;fill:#e5e4e3;fill-opacity:1;fill-rule:nonzero;stroke:#000000;stroke-width:1.68192661;stroke-linecap:round;stroke-linejoin:round;stroke-miterlimit:4;stroke-dasharray:none;stroke-dashoffset:0;stroke-opacity:1" />
      <g
         id="g218">
        <g
           transform="translate(-0.55065613,-13.764381)"
           style="stroke:none;stroke-opacity:1"
           id="g223">
          <g
             id="g1902">
            <g
               id="g1143">
              <path
                 inkscape:connector-curvature="0"
                 d="m 348.13086,448.74805 c 0.19685,0.479 0.0469,1.18314 -0.63867,1.88672 V 650.7793 H 488.91406 V 448.74805 Z"
                 style="fill:#ff6600;fill-rule:evenodd;stroke:none;stroke-width:0.99999994;stroke-opacity:1"
                 transform="scale(0.26458333)"
                 id="rect65" />
              <path
                 inkscape:connector-curvature="0"
                 d="m 348.13867,449.61328 c -0.10881,0.35776 -0.33433,0.74418 -0.74023,1.12891 l -0.002,0.002 c -0.90386,0.85661 -1.72002,1.35559 -2.83203,1.69141 0.0146,0.005 0.03,0.0103 0.0332,0.0312 0.0204,0.13568 -0.20317,0.18474 -0.30469,0.27734 -0.23569,0.21468 -0.45797,0.47232 -0.70508,0.67188 -0.17945,0.14475 -0.37414,0.27248 -0.56055,0.4082 -0.44116,0.34658 -1.01462,0.25941 -1.50195,0.44922 -0.28494,0.11112 -0.19192,0.22783 -0.4082,0.39258 -0.51795,0.3942 -0.63502,0.39761 -1.22266,0.63281 0.0246,0.002 0.0915,-0.0115 0.0742,0.008 -0.0613,0.0627 -0.15003,0.0908 -0.2207,0.14258 -0.009,0.008 -0.0107,0.0199 -0.0156,0.0312 -0.159,0.10583 -0.30787,0.22683 -0.47656,0.31641 -0.27439,0.14585 -0.57248,0.24213 -0.84961,0.38281 -0.45087,0.27099 -0.91413,0.49587 -1.40625,0.68164 -0.11637,0.0438 -0.54291,0.10179 -0.58203,0.31836 -0.41358,0.3583 -0.80114,0.69951 -1.30469,0.92969 -0.16686,0.0763 -0.35028,0.11253 -0.51953,0.18359 -0.19703,0.0824 -0.38119,0.19457 -0.57813,0.27734 -0.56087,0.12662 -0.9839,0.3661 -1.39062,0.75781 -0.0174,0.0151 0.0908,-0.0156 0.0723,-0.002 -0.23071,0.19087 -0.48079,0.35991 -0.72071,0.53906 -0.44413,0.28045 -0.99849,0.34726 -1.44336,0.62305 -0.0163,0.0113 -0.0918,0.16394 -0.0957,0.17188 -0.15783,0.13682 -0.30324,0.28796 -0.47266,0.41015 -0.20458,0.14778 -0.43529,0.25827 -0.64648,0.39649 -0.16052,0.10507 -0.31711,0.21448 -0.46875,0.33203 -0.12253,0.0949 -0.22022,0.22072 -0.35156,0.30273 -0.46391,0.29027 -0.67103,0.35153 -1.11719,0.51953 0.23244,0.41825 -1.51881,0.59377 -1.0957,0.66993 -0.39334,0.22077 -0.7177,0.50078 -1.0918,0.74609 -0.35097,0.8176 -1.19555,1.22488 -1.95313,1.59375 -0.54256,0.42047 -1.0762,0.86461 -1.57031,1.35156 -0.0999,0.35923 -0.46241,0.53994 -0.70703,0.76758 -0.0878,0.0816 0.35953,-0.31437 0.28711,-0.21875 -0.12597,0.1663 -0.8858,0.81984 -0.15625,0.18359 -0.41255,0.70417 -0.20859,0.51611 -1.12305,1.05469 -0.0918,0.0541 -0.20681,0.057 -0.30273,0.10352 -0.0611,0.0302 -0.0623,0.12526 -0.11524,0.16797 -0.0756,0.0606 -0.1579,0.11179 -0.23828,0.16601 -0.01,0.0372 -0.16086,0.19947 -0.28515,0.29492 -0.10099,0.12079 -0.20739,0.23655 -0.33008,0.33399 -0.76883,0.61058 -0.58917,0.0675 -0.69531,0.43945 -0.28695,0.47728 -0.76986,0.63634 -1.22657,0.89649 -0.0155,0.008 0.0667,0.002 0.0527,0.0117 -0.0201,0.0159 -0.0589,0.0441 -0.0899,0.0684 l -0.002,0.002 c -0.33354,0.36517 -0.54663,0.6565 -0.95898,0.91601 -0.0743,0.0469 -0.65555,0.3461 -0.84766,0.44531 -0.30009,0.41148 -0.79241,0.61097 -1.14648,0.97657 -0.58118,0.35565 -0.49044,0.48849 -1.41797,0.88281 -0.10065,0.0427 0.20047,-0.0874 0.30078,-0.13086 -0.32164,0.23546 -0.61485,0.51243 -1.01172,0.62695 -0.14852,0.0429 -0.30253,0.0613 -0.45703,0.0762 -0.0846,0.0736 -0.176,0.15259 -0.23242,0.20703 -0.19321,0.18633 -0.4502,0.29228 -0.66797,0.44921 -0.007,0.004 0.0193,0.0197 0.0117,0.0274 -0.0142,0.009 -0.0407,0.0315 -0.0586,0.0449 -0.21599,0.34975 -0.59645,0.55697 -0.91601,0.79688 -0.0483,0.0378 0.19964,-0.12581 0.16211,-0.0781 -0.3566,0.44973 -0.57246,0.49776 -1.08203,0.78516 -0.0463,0.0309 -0.0458,0.0274 -0.082,0.0508 -0.007,0.10285 -0.13741,0.214 -0.22851,0.2793 -0.33097,0.2377 -0.72115,0.37792 -1.07617,0.57812 -0.38328,0.18255 -0.71066,0.47048 -1.08789,0.66406 -0.53581,0.27477 -0.36252,0.0742 -0.50586,0.24805 -0.005,0.0151 0.002,0.0425 -0.0137,0.0508 -0.35645,0.19843 -0.74773,0.33162 -1.10352,0.53125 -0.18066,0.10129 -0.31972,0.26709 -0.5,0.36914 -0.12018,0.0682 -0.2473,0.12423 -0.37305,0.18164 0.006,8e-5 0.0315,-0.0156 0.0234,-0.004 -0.0661,0.0975 -0.19161,0.13717 -0.28516,0.20898 -0.0779,0.0597 -0.12785,0.1544 -0.21289,0.20312 -1.0867,0.62548 -0.5562,0.18997 -0.91015,0.48829 0.017,0.004 0.0636,8.4e-4 0.0508,0.0117 -0.38377,0.35566 -0.44224,0.3079 -0.9336,0.56446 -0.58859,0.30727 0.008,0.002 -0.41796,0.30273 -0.13459,0.0949 -0.27998,0.17284 -0.41993,0.25977 -0.42644,0.17121 -0.82753,0.41303 -1.23437,0.61523 -0.46525,0.23131 -0.3293,0.0572 -0.45117,0.22657 -0.12465,0.0752 -0.24288,0.1596 -0.37305,0.2246 -0.0155,0.008 -0.62535,0.24706 -0.77148,0.35743 -0.0181,0.0151 -0.009,0.0485 -0.0274,0.0625 -0.17337,0.13115 -0.36726,0.23622 -0.54492,0.36132 -0.35391,0.35263 -0.85462,0.56862 -1.31445,0.74415 -0.12057,0.0461 -0.24933,0.07 -0.36328,0.13085 -0.044,0.0227 0.0988,-0.0118 0.14843,-0.0156 -0.31275,0.3549 -0.81653,0.37489 -1.22265,0.54883 -0.22322,0.0954 -0.0847,0.23652 -0.36914,0.26562 -0.23111,0.22929 -0.47935,0.43138 -0.78125,0.58594 -0.20138,0.10318 -0.4252,0.15589 -0.63086,0.25 -0.0268,0.0113 0.10869,-0.0226 0.0879,-0.002 -0.0645,0.0646 -0.15314,0.0962 -0.23047,0.14453 l -0.70313,0.17969 c 0.10696,0.004 0.23609,0.01 0.20899,0.0312 -0.13297,0.10469 -0.28612,0.17888 -0.42774,0.27148 -0.002,0.002 -0.005,0.004 -0.008,0.006 -0.23196,0.19293 -0.45305,0.39981 -0.69922,0.57422 -0.25302,0.17934 -0.54833,0.23255 -0.84179,0.29492 -0.16878,0.2877 -0.42499,0.49587 -0.69141,0.69531 -0.0154,0.024 -0.0246,0.0522 -0.043,0.0742 -0.0798,0.0956 -0.41273,0.27916 -0.3125,0.20508 0.12289,-0.0909 0.23438,-0.18865 0.35547,-0.2793 0.0768,-0.1198 0.12908,-0.25585 0.19531,-0.38281 -0.44334,0.3428 -0.91675,0.64901 -1.33008,1.02734 -0.0574,0.0525 0.15491,-0.0139 0.23243,-0.0215 0.0295,-0.002 0.0635,0.0114 0.0898,-0.004 0.0615,-0.0302 0.19891,-0.18704 0.16406,-0.12695 -0.33721,0.58016 -0.46295,0.63939 -0.91797,1.06055 0.78844,-0.002 0.0456,0.17725 -0.5664,0.27929 -0.0274,0.0142 -0.0631,0.0336 -0.082,0.043 -0.0131,0.006 -0.0276,0.01 -0.041,0.0156 -0.0883,0.0705 -0.18405,0.1208 -0.28516,0.16406 -0.0176,0.0215 -0.0402,0.0474 -0.0508,0.0625 -0.24952,0.35754 -0.53939,0.67963 -0.83789,0.99609 -0.27796,0.12837 -0.53422,0.32535 -0.83203,0.38868 -0.18399,0.2415 -0.37602,0.4757 -0.62695,0.65625 -0.009,-0.0409 0.0219,-0.11268 0.0469,-0.17774 -0.17628,0.41663 -0.31436,0.64016 -0.64843,1.06055 -0.037,0.0469 0.0662,-0.0989 0.0996,-0.14844 -0.16864,0.18104 -0.33133,0.3676 -0.50586,0.54297 -0.009,0.008 -0.0396,0.0115 -0.0351,0.002 0.0249,-0.0658 0.14515,-0.24142 0.10547,-0.18359 -0.19949,0.29216 -0.35864,0.57162 -0.60547,0.82031 -0.2829,0.45113 -0.19269,0.36576 -0.67969,0.79492 -0.008,0.008 -0.0171,-0.0272 -0.0254,-0.0234 -0.33842,0.27212 -0.63182,0.60769 -1.04297,0.78125 0.21509,-0.44247 -0.0234,0.087 -0.59375,0.49023 -0.16947,0.11981 -0.37597,0.17315 -0.57031,0.24609 -0.0418,0.0168 -0.12698,0.0516 -0.13867,0.0274 -0.0185,0.0188 -0.0352,0.039 -0.0527,0.0586 -0.41386,0.44772 -0.83231,0.87681 -1.3125,1.25586 -0.15178,0.11981 -0.34061,0.18582 -0.48828,0.31055 -0.11165,0.0945 -0.20575,0.20661 -0.30859,0.31054 -0.36866,0.3258 -0.75266,0.62341 -1.13867,0.92774 -0.18936,0.14929 -0.34103,0.35784 -0.5625,0.45312 -0.0241,0.0104 -0.0119,-0.0109 0,-0.0312 -0.0926,0.10654 -0.18748,0.21099 -0.28125,0.31641 -0.18463,0.11339 -0.38716,0.19597 -0.56446,0.32031 -0.69352,0.48692 -1.17708,1.22206 -1.92968,1.63281 -0.12212,0.0533 -0.2588,0.0827 -0.36719,0.16016 -0.1787,0.12775 -0.32184,0.29568 -0.48242,0.44531 -0.40717,0.37966 -0.78045,0.79726 -1.19922,1.16407 -0.15927,0.13946 -0.34741,0.24063 -0.51563,0.36914 -0.21203,0.16214 -0.41524,0.33628 -0.62304,0.5039 -0.78144,0.54271 -1.54046,1.09936 -2.41407,1.4961 -0.15103,0.0711 -0.3102,0.12671 -0.45312,0.21289 -1.10491,0.66678 0.0952,0.11534 -1.26758,0.83398 -0.27795,0.14665 -0.59191,0.21538 -0.87109,0.35938 -0.14113,0.0729 -0.27365,0.16326 -0.41016,0.24414 -0.71756,0.60408 -1.45927,1.12381 -2.30078,1.55078 -1.12578,0.57116 -0.55829,0.2214 -1.48242,0.57422 -0.16853,0.0643 -0.32801,0.14782 -0.49219,0.22265 -0.41152,0.26797 -0.93096,0.61837 -1.35547,0.84571 -0.1533,0.082 -0.32632,0.12652 -0.48047,0.20703 -0.49076,0.25625 -0.92559,0.63765 -1.47265,0.77734 -0.70257,0.48389 -1.40076,0.92845 -2.19532,1.25391 -0.0657,0.0265 -1.20385,0.48414 -1.53515,0.44922 -0.0472,-0.004 0.006,-0.093 0.01,-0.14063 -0.16977,0.16479 -0.32014,0.34834 -0.50781,0.49219 -0.55115,0.42259 -1.29523,0.75406 -2.00391,0.74805 -0.0756,-6.5e-4 0.25138,-0.10278 0.14453,-0.17383 -0.89964,0.74732 -1.93582,1.23592 -3.04101,1.60937 -0.2849,0.13569 -0.56365,0.28625 -0.85547,0.40625 -0.15186,0.0624 -0.31367,0.0975 -0.47266,0.13867 -0.0742,0.0189 -0.1569,0.0124 -0.22656,0.043 -0.52911,0.24416 -1.00187,0.63261 -1.5957,0.73243 -0.3171,0.11943 -0.62319,0.26813 -0.94141,0.38476 -0.1175,0.0431 -0.25668,0.0267 -0.36523,0.0879 -0.81851,0.46953 -0.12082,0.1299 -0.76758,0.42969 -0.58946,0.30425 -1.17336,0.72946 -1.83398,0.86719 -0.32361,0.0676 -0.65831,0.0565 -0.98829,0.0762 -0.007,4.3e-4 0.013,-0.0316 0.0195,-0.0508 -0.11887,-0.006 -0.0552,0.017 -0.55274,0.17578 -0.83629,0.26835 -0.93164,0.30533 -1.79297,0.40039 -0.14532,0.0151 -0.29415,-7.8e-4 -0.43945,0.0156 -0.12816,0.0151 -0.25248,0.0508 -0.37891,0.0762 -0.96607,0.23357 -1.96296,0.51202 -2.98632,0.63867 -0.65701,0.082 -0.557,0.048 -1.20899,0.2207 -0.76162,0.20221 -1.42421,0.61026 -2.25,0.55274 -0.0426,-0.0154 -0.024,-0.013 -0.0352,-0.0176 -0.0597,0.0395 -0.11666,0.0836 -0.18164,0.11328 -0.87354,0.39859 -0.88716,0.32257 -1.84179,0.42969 -0.0407,-6.5e-4 -1.01724,-0.0207 -1.16407,-0.008 -0.15125,0.0151 -0.77402,0.21126 -0.83007,0.22071 -0.0591,0.0113 0.12539,-0.0372 0.1582,-0.0859 0.031,-0.0472 -0.10016,0.0508 -0.15039,0.0762 -0.20648,0.0926 -0.40921,0.19873 -0.62109,0.27735 -0.0798,0.0302 -0.16713,0.0265 -0.25,0.0469 -0.46987,0.10847 -1.056,0.36785 -1.53321,0.21289 -0.0151,-0.004 0.0263,-0.0198 0.0391,-0.0273 -0.54047,0.0983 0.35674,-0.073 -0.64648,0.17382 -0.6554,0.16101 -1.2061,0.20205 -1.86914,0.16993 h -1.62891 -1.60937 -2.32031 c -0.25237,0 -0.47242,-0.0319 -0.67383,-0.0781 l 33.20312,44.41211 133.33399,-73.97461 z m -31.40039,21.64063 c -0.0303,0.0238 -0.0558,0.0424 -0.0879,0.0664 -0.15988,0.19722 0.0465,-0.0199 0.0879,-0.0664 z m 8.91016,-10.37305 c -0.025,0.0119 -0.0605,0.0241 -0.0762,0.0352 -0.0117,0.008 -0.0143,0.0505 -0.004,0.041 0.0682,-0.0593 0.0327,-0.0331 0.0801,-0.0762 z m -20.16797,11.17578 -0.74024,0.41211 c 0.15559,-0.0399 0.30908,-0.083 0.46875,-0.11719 0.13881,-0.0297 0.27767,-0.0684 0.41602,-0.10351 -0.0471,-0.065 -0.0965,-0.12751 -0.14453,-0.19141 z m 2.76562,1.73047 c -0.0219,0.002 0.0266,0.0509 0.01,0.0645 -0.045,0.0362 -0.0994,0.058 -0.15234,0.082 -0.0632,0.2481 -0.16143,0.57229 -0.29688,0.67188 -0.0355,0.0265 0.0353,-0.1713 0.0176,-0.13086 -0.075,0.17106 -0.0592,0.14467 -0.0977,0.23828 0.0913,-0.0994 0.18144,-0.20021 0.28125,-0.29101 0.009,-0.008 0.0247,-0.0233 0.0371,-0.0352 -0.0566,-0.13961 0.0996,-0.35089 0.35156,-0.5918 -0.0501,-0.003 -0.10035,-0.0121 -0.15039,-0.008 z m 2.61329,1.30078 c -0.003,5e-4 -0.005,9e-4 -0.008,0.002 -0.002,3.1e-4 0.006,0.002 0.006,0.002 8.8e-4,-10e-4 9.2e-4,-0.003 0.002,-0.004 z m -15.42774,3.44141 c -0.084,0.009 -0.16785,0.0235 -0.25195,0.0293 -10e-4,0.0198 -0.004,0.0423 -0.006,0.0625 0.0531,-0.019 0.10219,-0.0446 0.1582,-0.0586 0.0336,-0.008 0.0664,-0.0213 0.0996,-0.0332 z m -1.26172,0.24414 c -0.0259,0.1343 -0.0668,0.27238 -0.13476,0.41406 0.006,-9.9e-4 0.01,9.1e-4 0.0156,0 0.18499,-0.0814 0.36076,-0.17851 0.5332,-0.28125 -0.0502,-0.0528 -0.19625,-0.0969 -0.41406,-0.13281 z m -16.82031,11.70312 c -0.005,0.004 -0.009,0.008 -0.0137,0.0117 -0.002,0.0197 0.006,0.0169 0.002,0.0391 0.004,-0.017 0.008,-0.0337 0.0117,-0.0508 z m -0.38086,0.23047 c -0.1529,0.0878 -0.2468,0.25622 -0.33984,0.42383 0.1123,-0.14436 0.22853,-0.28713 0.35547,-0.41797 -0.005,-0.003 -0.0109,-0.009 -0.0156,-0.006 z m 2.74805,0.14453 c -0.11631,0.0339 -0.2345,0.0638 -0.34375,0.11524 -0.0794,0.0378 0.17767,-0.012 0.25976,-0.0449 0.0265,-0.0102 0.0555,-0.0427 0.084,-0.0703 z m -3.45118,0.73438 c -0.0435,0.0438 -0.0762,0.0926 -0.11523,0.13867 -0.0721,0.12616 -0.178,0.30431 -0.12109,0.23633 0.0951,-0.1138 0.16216,-0.24679 0.23632,-0.375 z m -2.01367,6.94726 c -0.15486,0.0667 -0.30746,0.1412 -0.46289,0.20508 -0.1423,0.1311 -0.27732,0.26717 -0.41211,0.4043 0.10999,-0.0707 0.35416,-0.22054 0.57032,-0.35352 0.10209,-0.0851 0.20246,-0.17216 0.30468,-0.25586 z m -10.82226,4.26172 c -0.31394,0.27992 -0.66886,0.51392 -1.0293,0.73633 -0.0322,0.0916 -0.0664,0.18183 -0.0996,0.26953 0.0474,-0.01 0.0914,-0.0262 0.14063,-0.0312 0.0241,-0.006 0.0482,-0.0115 0.0723,-0.0176 0.0456,-0.0217 0.0892,-0.0455 0.13672,-0.0664 0.0557,-0.0995 0.15518,-0.16011 0.25781,-0.21875 0.0752,-0.12451 0.16012,-0.22172 0.25196,-0.31055 0.0937,-0.1302 0.19031,-0.26727 0.26953,-0.36133 z m -11.31055,0.7832 c -0.10108,0.005 -0.18753,0.007 -0.2793,0.008 -0.006,0.003 -0.0134,0.008 -0.0195,0.0117 0.0701,-9.5e-4 0.13934,-0.008 0.21094,0 0.0503,-4.6e-4 0.0414,-0.005 0.0742,-0.006 z m 8.26758,4.51758 c -0.0592,3e-4 -0.1186,0.003 -0.17774,0.002 -0.0638,0.0424 -0.12762,0.0846 -0.1914,0.12695 0.11949,-0.0382 0.23852,-0.0773 0.35547,-0.12305 0.005,-0.002 0.009,-0.004 0.0137,-0.006 z m -7.70313,0.94336 c -0.29705,0.12546 -0.59024,0.2584 -0.88281,0.39258 0.0489,0.0136 0.0958,0.0231 0.14453,0.0371 0.26596,-0.1327 0.53643,-0.25581 0.8125,-0.36523 -0.0249,-0.024 -0.0504,-0.0433 -0.0742,-0.0645 z m 4.17579,0.81641 c -0.0514,0.0126 -0.10321,0.0232 -0.1543,0.0371 -0.0332,0.009 -0.0677,0.0335 -0.10156,0.0488 -0.25777,0.18918 -0.51822,0.35591 -0.83594,0.46289 -0.0412,0.0516 -0.0915,0.0946 -0.13477,0.14453 0.432,-0.18858 0.81495,-0.46687 1.22657,-0.69336 z m -2.19922,1.24805 c -0.15334,0.0616 -0.34304,0.13283 -0.35352,0.15625 -0.11328,0.023 -0.2226,0.0598 -0.33203,0.0937 -0.0846,0.0389 -0.0809,0.0404 -0.20313,0.0996 -0.0731,0.0678 -0.1473,0.13579 -0.2207,0.20313 -0.0204,0.0159 -0.0401,0.0328 -0.0606,0.0488 0.40568,-0.16581 0.79652,-0.36746 1.16993,-0.60156 z m -0.74414,0.26757 c -0.025,0.008 -0.0514,0.0129 -0.0762,0.0215 -0.0171,0.0162 -0.0354,0.031 -0.0527,0.0469 0.064,-0.0319 0.0895,-0.0404 0.12891,-0.0684 z m -14.56641,3.52735 c -0.003,10e-4 -0.005,0.003 -0.008,0.004 -4.5e-4,0.001 -6.5e-4,-9e-4 -0.002,0.004 -0.0142,0.0553 -0.004,0.0292 0.01,-0.006 z m -2.31836,0.60937 c -0.11462,0.0225 -0.27644,0.0244 -0.36914,0.0762 -0.0291,0.0151 0.0452,0.0723 0.0234,0.0977 -0.0147,0.0173 -0.0364,0.0274 -0.0527,0.043 0.13249,-0.0724 0.27274,-0.13005 0.41407,-0.18555 -0.005,-0.0104 -0.0104,-0.0208 -0.0156,-0.0312 z m 1.10742,2.31641 c -0.0725,-0.0114 -0.2136,0.0647 -0.29101,0.10156 -0.0838,0.0386 -0.15977,0.0901 -0.23633,0.14063 0.067,-0.0132 0.098,-0.008 0.17969,-0.0274 0.44409,-0.10821 0.51444,-0.13782 0.52343,-0.15625 -0.0431,-0.006 -0.0882,-0.008 -0.13086,-0.0137 -0.004,-0.0282 -0.0208,-0.0411 -0.0449,-0.0449 z m -12.07617,0.69726 c -0.12601,0.0888 -0.2512,0.17889 -0.37695,0.26758 0.15001,-0.0625 0.29136,-0.14393 0.4375,-0.21484 -0.0219,-0.0166 -0.0402,-0.0353 -0.0606,-0.0527 z m -9.0293,2.60938 -0.17382,0.0957 h 0.21289 c -0.0128,-0.0321 -0.0296,-0.0631 -0.0391,-0.0957 z m 13.25196,0.83398 c -0.0727,0.0398 -0.14248,0.0837 -0.21094,0.13086 0.0269,-0.008 0.038,-0.003 0.0703,-0.0195 0.0535,-0.0265 0.19305,-0.14005 0.14063,-0.11133 z"
                 style="fill:#ff6600;fill-rule:evenodd;stroke:none;stroke-width:0.54724503;stroke-opacity:1"
                 transform="scale(0.26458333)"
                 id="rect65-7" />
              <path
                 d="m 129.35851,118.73125 c 0.0288,0.0947 0.0885,0.1969 0.19586,0.29869 l 5.3e-4,5.3e-4 c 0.23914,0.22664 0.45508,0.35866 0.7493,0.44752 -0.004,10e-4 -0.008,0.003 -0.009,0.008 -0.005,0.0359 0.0538,0.0489 0.0806,0.0734 0.0624,0.0568 0.12117,0.12497 0.18656,0.17777 0.0475,0.0383 0.099,0.0721 0.14831,0.108 0.11672,0.0917 0.26845,0.0686 0.39739,0.11886 0.0754,0.0294 0.0508,0.0603 0.108,0.10387 0.13704,0.1043 0.16802,0.1052 0.3235,0.16743 -0.007,5.3e-4 -0.0242,-0.003 -0.0196,0.002 0.0162,0.0166 0.0397,0.024 0.0584,0.0377 0.002,0.002 0.003,0.005 0.004,0.008 0.0421,0.028 0.0815,0.06 0.12609,0.0837 0.0726,0.0386 0.15147,0.0641 0.22479,0.10129 0.11929,0.0717 0.24186,0.13119 0.37207,0.18035 0.0308,0.0116 0.14365,0.0269 0.154,0.0842 0.10942,0.0948 0.21196,0.18508 0.34519,0.24598 0.0442,0.0202 0.0927,0.0298 0.13746,0.0486 0.0521,0.0218 0.10086,0.0515 0.15297,0.0734 0.14839,0.0335 0.26032,0.0969 0.36793,0.20051 0.005,0.004 -0.024,-0.004 -0.0191,-5.3e-4 0.061,0.0505 0.12721,0.0952 0.19069,0.14262 0.11751,0.0742 0.26418,0.0919 0.38189,0.16485 0.004,0.003 0.0243,0.0434 0.0253,0.0455 0.0418,0.0362 0.0802,0.0762 0.12506,0.10852 0.0541,0.0391 0.11517,0.0683 0.17105,0.1049 0.0425,0.0278 0.0839,0.0568 0.12402,0.0879 0.0324,0.0251 0.0583,0.0584 0.093,0.0801 0.12274,0.0768 0.17754,0.093 0.29559,0.13746 -0.0615,0.11066 0.40185,0.1571 0.2899,0.17725 0.10407,0.0584 0.18989,0.1325 0.28887,0.1974 0.0929,0.21633 0.31633,0.32409 0.51677,0.42168 0.14355,0.11125 0.28474,0.22877 0.41548,0.3576 0.0264,0.0951 0.12234,0.14286 0.18707,0.20309 0.0232,0.0216 -0.0951,-0.0832 -0.076,-0.0579 0.0333,0.044 0.23436,0.21692 0.0413,0.0486 0.10915,0.18631 0.0552,0.13655 0.29714,0.27905 0.0243,0.0143 0.0547,0.0151 0.0801,0.0274 0.0162,0.008 0.0165,0.0332 0.0305,0.0444 0.02,0.016 0.0418,0.0296 0.0631,0.0439 0.003,0.01 0.0426,0.0528 0.0754,0.078 0.0267,0.032 0.0549,0.0626 0.0873,0.0884 0.20342,0.16155 0.15588,0.0179 0.18396,0.11627 0.0759,0.12628 0.2037,0.16836 0.32453,0.2372 0.004,0.002 -0.0177,5.2e-4 -0.0139,0.003 0.005,0.004 0.0156,0.0117 0.0238,0.0181 l 5.3e-4,5.3e-4 c 0.0883,0.0966 0.14463,0.1737 0.25373,0.24236 0.0197,0.0124 0.17345,0.0916 0.22428,0.11782 0.0794,0.10888 0.20966,0.16166 0.30334,0.25839 0.15377,0.0941 0.12976,0.12924 0.37517,0.23358 0.0266,0.0113 -0.053,-0.0231 -0.0796,-0.0346 0.0851,0.0623 0.16268,0.13558 0.26769,0.16588 0.0393,0.0114 0.08,0.0162 0.12092,0.0202 0.0224,0.0195 0.0466,0.0404 0.0615,0.0548 0.0511,0.0493 0.11911,0.0773 0.17673,0.11885 0.002,0.001 -0.005,0.005 -0.003,0.007 0.004,0.002 0.0108,0.008 0.0155,0.0119 0.0572,0.0925 0.15781,0.14737 0.24236,0.21085 0.0128,0.01 -0.0528,-0.0333 -0.0429,-0.0207 0.0944,0.11899 0.15147,0.1317 0.28629,0.20774 0.0122,0.008 0.0121,0.007 0.0217,0.0134 0.002,0.0272 0.0364,0.0566 0.0605,0.0739 0.0876,0.0629 0.1908,0.1 0.28474,0.15296 0.10141,0.0483 0.18803,0.12448 0.28783,0.1757 0.14177,0.0727 0.0959,0.0196 0.13385,0.0656 0.001,0.004 -5.3e-4,0.0113 0.004,0.0134 0.0943,0.0525 0.19783,0.0877 0.29197,0.14056 0.0478,0.0268 0.0846,0.0707 0.13229,0.0977 0.0318,0.018 0.0654,0.0329 0.0987,0.0481 -0.002,2e-5 -0.008,-0.004 -0.006,-10e-4 0.0175,0.0258 0.0507,0.0363 0.0754,0.0553 0.0206,0.0158 0.0338,0.0408 0.0563,0.0537 0.28752,0.1655 0.14716,0.0503 0.24081,0.1292 -0.005,0.001 -0.0168,2.2e-4 -0.0134,0.003 0.10154,0.0941 0.11701,0.0815 0.24702,0.14934 0.15573,0.0813 -0.002,5.3e-4 0.11058,0.0801 0.0356,0.0251 0.0741,0.0457 0.11111,0.0687 0.11283,0.0453 0.21895,0.10928 0.32659,0.16278 0.1231,0.0612 0.0871,0.0151 0.11937,0.06 0.033,0.0199 0.0643,0.0422 0.0987,0.0594 0.004,0.002 0.16546,0.0654 0.20412,0.0946 0.005,0.004 0.002,0.0128 0.007,0.0165 0.0459,0.0347 0.0972,0.0625 0.14418,0.0956 0.0936,0.0933 0.22612,0.15045 0.34778,0.19689 0.0319,0.0122 0.066,0.0185 0.0961,0.0346 0.0116,0.006 -0.0261,-0.003 -0.0393,-0.004 0.0828,0.0939 0.21604,0.0992 0.32349,0.14521 0.0591,0.0252 0.0224,0.0626 0.0977,0.0703 0.0611,0.0607 0.12683,0.11414 0.20671,0.15503 0.0533,0.0273 0.1125,0.0412 0.16692,0.0661 0.007,0.003 -0.0288,-0.006 -0.0233,-5.3e-4 0.0171,0.0171 0.0405,0.0254 0.061,0.0382 l 0.18603,0.0475 c -0.0283,0.001 -0.0625,0.003 -0.0553,0.008 0.0352,0.0277 0.0757,0.0473 0.11318,0.0718 5.2e-4,5.3e-4 10e-4,0.001 0.002,0.002 0.0614,0.051 0.11987,0.10578 0.185,0.15193 0.067,0.0474 0.14508,0.0615 0.22272,0.078 0.0447,0.0761 0.11245,0.1312 0.18294,0.18397 0.004,0.006 0.006,0.0138 0.0114,0.0196 0.0211,0.0253 0.1092,0.0739 0.0827,0.0543 -0.0325,-0.0241 -0.062,-0.0499 -0.094,-0.0739 -0.0203,-0.0317 -0.0342,-0.0677 -0.0517,-0.10129 0.1173,0.0907 0.24255,0.17172 0.35191,0.27182 0.0152,0.0139 -0.041,-0.004 -0.0615,-0.006 -0.008,-5.3e-4 -0.0168,0.003 -0.0238,-0.001 -0.0163,-0.008 -0.0526,-0.0495 -0.0434,-0.0336 0.0892,0.1535 0.12249,0.16917 0.24288,0.2806 -0.2086,-5.3e-4 -0.0121,0.0469 0.14986,0.0739 0.007,0.004 0.0167,0.009 0.0217,0.0114 0.004,0.002 0.007,0.003 0.0109,0.004 0.0234,0.0186 0.0487,0.032 0.0755,0.0434 0.005,0.006 0.0106,0.0125 0.0134,0.0165 0.066,0.0946 0.14272,0.17982 0.2217,0.26355 0.0735,0.034 0.14134,0.0861 0.22014,0.10284 0.0487,0.0639 0.0995,0.12586 0.16588,0.17363 0.002,-0.0108 -0.006,-0.0298 -0.0124,-0.047 0.0466,0.11024 0.0832,0.16938 0.17156,0.28061 0.01,0.0124 -0.0175,-0.0262 -0.0264,-0.0393 0.0446,0.0479 0.0877,0.0973 0.13384,0.14366 0.002,0.002 0.0105,0.003 0.009,5.3e-4 -0.007,-0.0174 -0.0384,-0.0639 -0.0279,-0.0486 0.0528,0.0773 0.0949,0.15124 0.1602,0.21704 0.0748,0.11936 0.051,0.0968 0.17983,0.21032 0.002,0.002 0.005,-0.007 0.007,-0.006 0.0895,0.072 0.16717,0.16078 0.27596,0.20671 -0.0569,-0.11707 0.006,0.023 0.15709,0.1297 0.0448,0.0317 0.0995,0.0458 0.1509,0.0651 0.0111,0.004 0.0336,0.0136 0.0367,0.007 0.005,0.005 0.009,0.0103 0.0139,0.0155 0.1095,0.11846 0.22021,0.23199 0.34726,0.33228 0.0402,0.0317 0.0901,0.0492 0.12919,0.0822 0.0295,0.025 0.0544,0.0547 0.0816,0.0822 0.0975,0.0862 0.19915,0.16495 0.30128,0.24547 0.0501,0.0395 0.0902,0.0947 0.14883,0.11988 0.006,0.003 0.003,-0.003 0,-0.008 0.0245,0.0282 0.0496,0.0558 0.0744,0.0837 0.0489,0.03 0.10243,0.0519 0.14934,0.0848 0.1835,0.12883 0.31144,0.32334 0.51056,0.43202 0.0323,0.0141 0.0685,0.0219 0.0971,0.0424 0.0473,0.0338 0.0851,0.0782 0.12764,0.11782 0.10774,0.10045 0.2065,0.21094 0.3173,0.30799 0.0421,0.0369 0.0919,0.0637 0.13643,0.0977 0.0561,0.0429 0.10986,0.089 0.16484,0.13333 0.20676,0.14359 0.40758,0.29087 0.63872,0.39584 0.04,0.0188 0.0821,0.0335 0.11989,0.0563 0.29234,0.17642 -0.0252,0.0305 0.33538,0.22066 0.0735,0.0388 0.15661,0.057 0.23048,0.0951 0.0373,0.0193 0.0724,0.0432 0.10852,0.0646 0.18985,0.15983 0.3861,0.29734 0.60875,0.41031 0.29786,0.15112 0.14771,0.0586 0.39222,0.15193 0.0446,0.017 0.0868,0.0391 0.13023,0.0589 0.10888,0.0709 0.24631,0.16361 0.35863,0.22376 0.0406,0.0217 0.0863,0.0335 0.12713,0.0548 0.12984,0.0678 0.24489,0.16871 0.38963,0.20567 0.18589,0.12803 0.37062,0.24565 0.58085,0.33176 0.0174,0.007 0.31852,0.1281 0.40617,0.11886 0.0125,-0.001 -0.002,-0.0246 -0.003,-0.0372 0.0449,0.0436 0.0847,0.0922 0.13436,0.13022 0.14583,0.11181 0.3427,0.19951 0.5302,0.19792 0.02,-1.7e-4 -0.0665,-0.0272 -0.0382,-0.046 0.23803,0.19773 0.51219,0.32701 0.8046,0.42582 0.0754,0.0359 0.14914,0.0757 0.22635,0.10748 0.0402,0.0165 0.083,0.0258 0.12505,0.0367 0.0196,0.005 0.0415,0.003 0.0599,0.0114 0.13999,0.0646 0.26508,0.16738 0.42219,0.19379 0.0839,0.0316 0.16489,0.0709 0.24909,0.1018 0.0311,0.0114 0.0679,0.007 0.0966,0.0233 0.21656,0.12423 0.032,0.0344 0.20309,0.11369 0.15596,0.0805 0.31045,0.193 0.48524,0.22945 0.0856,0.0179 0.17418,0.0149 0.26148,0.0202 0.002,1.1e-4 -0.003,-0.008 -0.005,-0.0134 0.0315,-0.002 0.0146,0.005 0.14625,0.0465 0.22127,0.071 0.2465,0.0808 0.47439,0.10593 0.0385,0.004 0.0778,-2e-4 0.11627,0.004 0.0339,0.004 0.0668,0.0134 0.10025,0.0202 0.25561,0.0618 0.51937,0.13547 0.79014,0.16898 0.17383,0.0217 0.14737,0.0127 0.31987,0.0584 0.20152,0.0535 0.37683,0.16147 0.59532,0.14625 0.0113,-0.004 0.006,-0.003 0.009,-0.005 0.0158,0.0104 0.0309,0.0221 0.0481,0.03 0.23112,0.10546 0.23472,0.0854 0.4873,0.11369 0.0108,-1.7e-4 0.26915,-0.005 0.308,-0.002 0.04,0.004 0.20479,0.0559 0.21962,0.0584 0.0156,0.003 -0.0332,-0.01 -0.0419,-0.0227 -0.008,-0.0125 0.0265,0.0134 0.0398,0.0202 0.0546,0.0245 0.10827,0.0526 0.16433,0.0734 0.0211,0.008 0.0442,0.007 0.0662,0.0124 0.12432,0.0287 0.2794,0.0973 0.40566,0.0563 0.004,-0.001 -0.007,-0.005 -0.0103,-0.007 0.14299,0.026 -0.0944,-0.0193 0.17104,0.046 0.17341,0.0426 0.31912,0.0535 0.49455,0.045 h 0.43099 0.42581 0.61392 c 0.0668,1.7e-4 0.12499,-0.008 0.17828,-0.0205 l -8.78499,11.75071 -35.27795,-19.57245 z m 8.30802,5.72575 c 0.008,0.006 0.0148,0.0112 0.0233,0.0176 0.0423,0.0522 -0.0123,-0.005 -0.0233,-0.0176 z m -2.35748,-2.74454 c 0.007,0.003 0.016,0.006 0.0202,0.009 0.003,0.002 0.004,0.0134 0.001,0.0109 -0.018,-0.0157 -0.009,-0.009 -0.0212,-0.0202 z m 5.33611,2.95693 0.19586,0.10903 c -0.0412,-0.0105 -0.0818,-0.022 -0.12403,-0.031 -0.0367,-0.008 -0.0735,-0.0181 -0.11007,-0.0274 0.0125,-0.0172 0.0255,-0.0337 0.0382,-0.0506 z m -0.73173,0.45785 c 0.006,5.3e-4 -0.007,0.0135 -0.003,0.0171 0.0119,0.01 0.0263,0.0153 0.0403,0.0217 0.0167,0.0657 0.0427,0.15142 0.0786,0.17777 0.009,0.007 -0.009,-0.0453 -0.005,-0.0346 0.0198,0.0453 0.0157,0.0383 0.0258,0.063 -0.0242,-0.0263 -0.048,-0.053 -0.0744,-0.077 -0.002,-0.002 -0.006,-0.006 -0.01,-0.009 0.015,-0.0369 -0.0264,-0.0928 -0.093,-0.15658 0.0133,-8e-4 0.0265,-0.003 0.0398,-0.002 z m -0.69144,0.34416 c 8e-4,1.4e-4 0.001,2.4e-4 0.002,5.3e-4 5.3e-4,9e-5 -0.002,5.3e-4 -0.002,5.3e-4 -2.3e-4,-2.6e-4 -2.4e-4,-7.9e-4 -5.3e-4,-0.001 z m 4.08193,0.91054 c 0.0222,0.002 0.0444,0.006 0.0667,0.008 2.6e-4,0.005 0.001,0.0112 0.002,0.0165 -0.014,-0.005 -0.027,-0.0118 -0.0419,-0.0155 -0.009,-0.002 -0.0176,-0.006 -0.0264,-0.009 z m 0.33383,0.0646 c 0.007,0.0355 0.0177,0.0721 0.0357,0.10955 -0.002,-2.6e-4 -0.003,2.4e-4 -0.004,0 -0.0489,-0.0215 -0.0954,-0.0472 -0.14108,-0.0744 0.0133,-0.014 0.0519,-0.0256 0.10955,-0.0351 z m 4.45037,3.09645 c 0.001,0.001 0.002,0.002 0.004,0.003 5.3e-4,0.005 -0.002,0.005 -5.3e-4,0.0104 -0.001,-0.004 -0.002,-0.009 -0.003,-0.0134 z m 0.10077,0.061 c 0.0405,0.0232 0.0653,0.0678 0.0899,0.11214 -0.0297,-0.0382 -0.0605,-0.076 -0.094,-0.11059 0.001,-7.9e-4 0.003,-0.002 0.004,-0.002 z m -0.72709,0.0382 c 0.0308,0.009 0.062,0.0169 0.0909,0.0305 0.021,0.01 -0.047,-0.003 -0.0687,-0.0119 -0.007,-0.003 -0.0147,-0.0113 -0.0222,-0.0186 z m 0.91313,0.1943 c 0.0115,0.0116 0.0202,0.0245 0.0305,0.0367 0.0191,0.0334 0.0471,0.0805 0.032,0.0625 -0.0252,-0.0301 -0.0429,-0.0653 -0.0625,-0.0992 z m 0.53278,1.83813 c 0.041,0.0177 0.0813,0.0374 0.12247,0.0543 0.0377,0.0347 0.0734,0.0707 0.10904,0.10697 -0.0291,-0.0187 -0.0937,-0.0583 -0.1509,-0.0935 -0.027,-0.0225 -0.0536,-0.0455 -0.0806,-0.0677 z m 2.86339,1.12758 c 0.0831,0.0741 0.17697,0.13598 0.27233,0.19482 0.008,0.0242 0.0176,0.0481 0.0264,0.0713 -0.0125,-0.003 -0.0242,-0.007 -0.0372,-0.008 -0.006,-0.002 -0.0127,-0.003 -0.0191,-0.005 -0.0121,-0.006 -0.0236,-0.012 -0.0362,-0.0176 -0.0147,-0.0263 -0.0411,-0.0424 -0.0682,-0.0579 -0.0199,-0.0329 -0.0424,-0.0587 -0.0667,-0.0822 -0.0248,-0.0345 -0.0503,-0.0707 -0.0713,-0.0956 z m 2.99258,0.20723 c 0.0268,0.001 0.0496,0.002 0.0739,0.002 0.002,7.9e-4 0.004,0.002 0.005,0.003 -0.0185,-2.6e-4 -0.0369,-0.002 -0.0558,0 -0.0133,-1.3e-4 -0.011,-0.001 -0.0196,-0.002 z m -2.18746,1.19527 c 0.0157,8e-5 0.0314,8e-4 0.047,5.3e-4 0.0169,0.0112 0.0338,0.0224 0.0506,0.0336 -0.0316,-0.0101 -0.0631,-0.0205 -0.094,-0.0326 -0.001,-5.3e-4 -0.002,-0.001 -0.004,-0.002 z m 2.03812,0.2496 c 0.0786,0.0332 0.15616,0.0684 0.23357,0.10387 -0.0129,0.004 -0.0253,0.006 -0.0382,0.01 -0.0704,-0.0351 -0.14193,-0.0677 -0.21497,-0.0966 0.007,-0.006 0.0133,-0.0115 0.0196,-0.0171 z m -1.10485,0.21601 c 0.0136,0.003 0.0273,0.006 0.0408,0.01 0.009,0.002 0.0179,0.009 0.0269,0.0129 0.0682,0.05 0.13711,0.0942 0.22118,0.12247 0.0109,0.0136 0.0242,0.025 0.0357,0.0382 -0.1143,-0.0499 -0.21562,-0.12353 -0.32453,-0.18345 z m 0.58188,0.33021 c 0.0406,0.0163 0.0908,0.0351 0.0935,0.0413 0.03,0.006 0.0589,0.0158 0.0879,0.0248 0.0224,0.0103 0.0214,0.0107 0.0537,0.0264 0.0193,0.0179 0.039,0.0359 0.0584,0.0537 0.005,0.004 0.0106,0.009 0.016,0.0129 -0.10734,-0.0439 -0.21075,-0.0972 -0.30954,-0.15916 z m 0.19689,0.0708 c 0.007,0.002 0.0136,0.003 0.0202,0.006 0.004,0.004 0.009,0.008 0.0139,0.0124 -0.0169,-0.008 -0.0237,-0.0107 -0.0341,-0.0181 z m 3.85403,0.93328 c 7.9e-4,2.6e-4 0.001,7.9e-4 0.002,10e-4 1.2e-4,2.6e-4 1.7e-4,-2.4e-4 5.3e-4,0.001 0.004,0.0146 10e-4,0.008 -0.003,-0.002 z m 0.6134,0.16123 c 0.0303,0.006 0.0731,0.007 0.0977,0.0202 0.008,0.004 -0.012,0.0191 -0.006,0.0259 0.004,0.005 0.01,0.007 0.0139,0.0114 -0.0351,-0.0192 -0.0722,-0.0344 -0.10956,-0.0491 0.001,-0.003 0.003,-0.006 0.004,-0.008 z m -0.29301,0.61288 c 0.0192,-0.003 0.0565,0.0171 0.077,0.0269 0.0222,0.0102 0.0423,0.0238 0.0625,0.0372 -0.0177,-0.004 -0.0259,-0.002 -0.0476,-0.007 -0.1175,-0.0286 -0.13611,-0.0365 -0.13849,-0.0413 0.0114,-0.002 0.0233,-0.002 0.0346,-0.004 0.001,-0.007 0.005,-0.0109 0.0119,-0.0119 z m 3.19515,0.18449 c 0.0333,0.0235 0.0665,0.0473 0.0997,0.0708 -0.0397,-0.0165 -0.0771,-0.0381 -0.11576,-0.0568 0.006,-0.004 0.0106,-0.009 0.016,-0.0139 z m 2.38901,0.69039 0.046,0.0253 h -0.0563 c 0.003,-0.008 0.008,-0.0167 0.0103,-0.0253 z m -3.50625,0.22066 c 0.0192,0.0105 0.0377,0.0221 0.0558,0.0346 -0.007,-0.002 -0.0101,-7.9e-4 -0.0186,-0.005 -0.0142,-0.007 -0.0511,-0.0371 -0.0372,-0.0295 z"
                 style="fill:#ff6600;fill-rule:evenodd;stroke:none;stroke-width:0.14479192;stroke-opacity:1"
                 id="rect65-7-5"
                 inkscape:connector-curvature="0" />
              <path
                 inkscape:connector-curvature="0"
                 id="path1045"
                 d="m 91.940641,172.18535 c 0,0 14.315109,-11.09191 15.517829,-18.84272 1.20271,-7.75082 3.07359,-35.01231 3.07359,-35.01231"
                 style="fill:none;stroke:#000000;stroke-width:0.26458332px;stroke-linecap:butt;stroke-linejoin:miter;stroke-opacity:1" />
              <path
                 inkscape:connector-curvature="0"
                 id="path1045-9"
                 d="m 129.35851,172.18535 c 0,0 -14.31511,-11.09191 -15.51783,-18.84272 -1.20271,-7.75082 -3.07359,-35.01231 -3.07359,-35.01231"
                 style="fill:none;stroke:#000000;stroke-width:0.26458332px;stroke-linecap:butt;stroke-linejoin:miter;stroke-opacity:1" />
              <path
                 inkscape:connector-curvature="0"
                 id="path1071"
                 d="M 91.940641,172.18535 H 129.35851"
                 style="fill:#803300;stroke:#000000;stroke-width:0.26458332px;stroke-linecap:butt;stroke-linejoin:miter;stroke-opacity:1" />
              <path
                 transform="matrix(0.26458333,0,0,0.26458333,0.55065613,13.764381)"
                 inkscape:connector-curvature="0"
                 id="path1073"
                 d="m 353.73415,592.78851 c 26.29299,-22.3372 44.60892,-44.34505 49.58221,-59.5764 2.38889,-7.31628 5.52025,-37.76623 10.14109,-98.61369 1.10609,-14.56506 2.17673,-28.18656 2.37919,-30.26999 l 0.36812,-3.78808 0.41854,5.80838 c 1.42261,19.74267 4.68263,60.86336 5.96627,75.25636 2.83602,31.79929 4.5068,45.66446 6.1402,50.95505 2.27601,7.37201 8.21636,17.21662 16.49231,27.33178 5.78636,7.07229 22.36464,23.5963 31.14092,31.03899 3.88909,3.29812 7.40388,6.30039 7.81064,6.6717 0.61758,0.56374 -10.61308,0.6751 -68.08061,0.6751 h -68.82018 z"
                 style="opacity:0.70899999;fill:#803300;fill-opacity:1;fill-rule:evenodd;stroke:none;stroke-width:1.28663218;stroke-linecap:round;stroke-linejoin:round;stroke-miterlimit:4;stroke-dasharray:none;stroke-dashoffset:0;stroke-opacity:1" />
              <path
                 d="m 114.98294,124.32762 a 1.0866816,1.1339285 0 0 1 -1.08477,1.13393 1.0866816,1.1339285 0 0 1 -1.08858,-1.12995 1.0866816,1.1339285 0 0 1 1.08095,-1.13789 1.0866816,1.1339285 0 0 1 1.09238,1.12596"
                 sodipodi:open="true"
                 sodipodi:end="6.2761691"
                 sodipodi:start="0"
                 sodipodi:ry="1.1339285"
                 sodipodi:rx="1.0866816"
                 sodipodi:cy="124.32762"
                 sodipodi:cx="113.89626"
                 sodipodi:type="arc"
                 id="path1075"
                 style="opacity:0.70899999;fill:#6c5353;fill-opacity:1;fill-rule:evenodd;stroke:#000000;stroke-width:0.17399999;stroke-linecap:round;stroke-linejoin:round;stroke-miterlimit:4;stroke-dasharray:none;stroke-dashoffset:0;stroke-opacity:1" />
              <path
                 d="m 116.06962,134.155 a 1.0866816,1.1339285 0 0 1 -1.08477,1.13393 1.0866816,1.1339285 0 0 1 -1.08858,-1.12995 1.0866816,1.1339285 0 0 1 1.08095,-1.13789 1.0866816,1.1339285 0 0 1 1.09238,1.12595"
                 sodipodi:open="true"
                 sodipodi:end="6.2761691"
                 sodipodi:start="0"
                 sodipodi:ry="1.1339285"
                 sodipodi:rx="1.0866816"
                 sodipodi:cy="134.155"
                 sodipodi:cx="114.98294"
                 sodipodi:type="arc"
                 id="path1075-1"
                 style="opacity:0.70899999;fill:#6c5353;fill-opacity:1;fill-rule:evenodd;stroke:#000000;stroke-width:0.17399999;stroke-linecap:round;stroke-linejoin:round;stroke-miterlimit:4;stroke-dasharray:none;stroke-dashoffset:0;stroke-opacity:1" />
              <path
                 d="m 117.20356,143.6044 a 1.0866816,1.1339285 0 0 1 -1.08477,1.13393 1.0866816,1.1339285 0 0 1 -1.08858,-1.12995 1.0866816,1.1339285 0 0 1 1.08095,-1.13789 1.0866816,1.1339285 0 0 1 1.09238,1.12595"
                 sodipodi:open="true"
                 sodipodi:end="6.2761691"
                 sodipodi:start="0"
                 sodipodi:ry="1.1339285"
                 sodipodi:rx="1.0866816"
                 sodipodi:cy="143.6044"
                 sodipodi:cx="116.11688"
                 sodipodi:type="arc"
                 id="path1075-2"
                 style="opacity:0.70899999;fill:#6c5353;fill-opacity:1;fill-rule:evenodd;stroke:#000000;stroke-width:0.17399999;stroke-linecap:round;stroke-linejoin:round;stroke-miterlimit:4;stroke-dasharray:none;stroke-dashoffset:0;stroke-opacity:1" />
              <path
                 inkscape:connector-curvature="0"
                 id="path1098"
                 d="m 106.85646,124.42212 c 1.98437,-0.0945 1.98437,-0.0945 1.98437,-0.0945"
                 style="fill:none;stroke:#000000;stroke-width:0.26458332px;stroke-linecap:butt;stroke-linejoin:miter;stroke-opacity:1" />
              <path
                 inkscape:connector-curvature="0"
                 id="path1098-4"
                 d="m 106.24225,134.48573 c 1.98437,-0.0945 1.98437,-0.0945 1.98437,-0.0945"
                 style="fill:none;stroke:#000000;stroke-width:0.26458332px;stroke-linecap:butt;stroke-linejoin:miter;stroke-opacity:1" />
              <path
                 inkscape:connector-curvature="0"
                 id="path1098-4-5"
                 d="m 104.91933,144.31312 c 1.98437,-0.0945 1.98437,-0.0945 1.98437,-0.0945"
                 style="fill:none;stroke:#000000;stroke-width:0.26458332px;stroke-linecap:butt;stroke-linejoin:miter;stroke-opacity:1" />
            </g>
            <path
               style="fill:none;stroke:#8f2a2a;stroke-width:0.165;stroke-linecap:butt;stroke-linejoin:miter;stroke-opacity:1;stroke-miterlimit:4;stroke-dasharray:none;opacity:0.9;filter:url(#filter1438)"
               d="m 91.879152,135.7614 c 0,0 2.173364,0.18899 2.740326,-1.22842 0.566965,-1.41741 0.614213,-4.77195 0.8032,-6.56734 0.188989,-1.79539 0.09449,-4.20498 -0.330727,-5.14992 -0.425225,-0.94494 -2.982329,-4.08447 -2.982329,-4.08447"
               id="path1149"
               inkscape:connector-curvature="0"
               sodipodi:nodetypes="ccccc" />
            <path
               style="opacity:0.9;fill:none;stroke:#8f2a2a;stroke-width:0.16500001;stroke-linecap:butt;stroke-linejoin:miter;stroke-miterlimit:4;stroke-dasharray:none;stroke-opacity:1;filter:url(#filter1438-5)"
               d="m 145.06255,133.12204 c 0,0 2.17337,0.18899 2.74033,-1.22842 0.56696,-1.41741 0.61421,-4.77195 0.8032,-6.56734 0.18899,-1.79539 0.0945,-4.20498 -0.33073,-5.14992 -0.42522,-0.94494 -2.98233,-4.08447 -2.98233,-4.08447"
               id="path1149-2"
               inkscape:connector-curvature="0"
               sodipodi:nodetypes="ccccc"
               transform="matrix(-1,0,0,1,274.65153,2.63936)" />
            <g
               id="g1881">
              <path
                 inkscape:connector-curvature="0"
                 id="path1463"
                 d="m 102.11307,97.21603 c 0,0 12.56166,0.4009 14.69982,-2.27179 2.13816,-2.672699 2.93997,-4.142682 2.93997,-4.142682 v 8.285352 c 0,0 -3.87541,1.06908 -5.87993,1.06908 -2.00452,0 -11.75986,0.13364 -11.75986,0.13364 z"
                 style="fill:#ffd427;fill-opacity:1;stroke:#000000;stroke-width:0.26499999;stroke-linecap:butt;stroke-linejoin:round;stroke-miterlimit:4;stroke-dasharray:none;stroke-opacity:1" />
              <path
                 transform="matrix(1.4070156,-0.21388652,0.10760308,0.70784835,-59.294683,54.180798)"
                 inkscape:connector-curvature="0"
                 id="path1497"
                 d="m 114.36873,98.719739 c 4.39398,-4.346726 4.72471,-5.527903 4.72471,-5.527903 l 0.18899,5.055431 z"
                 style="fill:#f4f40b;fill-opacity:1;stroke:none;stroke-width:0.26458332px;stroke-linecap:butt;stroke-linejoin:miter;stroke-opacity:1;filter:url(#filter1875)" />
            </g>
          </g>
        </g>
      </g>
    </g>
  </g>
</svg>
