<?xml version="1.0" encoding="UTF-8" standalone="no"?>
<!-- Created with Inkscape (http://www.inkscape.org/) -->

<svg
   xmlns:dc="http://purl.org/dc/elements/1.1/"
   xmlns:cc="http://creativecommons.org/ns#"
   xmlns:rdf="http://www.w3.org/1999/02/22-rdf-syntax-ns#"
   xmlns:svg="http://www.w3.org/2000/svg"
   xmlns="http://www.w3.org/2000/svg"
   xmlns:sodipodi="http://sodipodi.sourceforge.net/DTD/sodipodi-0.dtd"
   xmlns:inkscape="http://www.inkscape.org/namespaces/inkscape"
   width="210mm"
   height="297mm"
   viewBox="0 0 210 297"
   version="1.1"
   id="svg8"
   inkscape:version="0.92.4 (5da689c313, 2019-01-14)"
   sodipodi:docname="senjata.svg"
   inkscape:export-filename="C:\Users\RAIHAN SETYO WIBOWO\Desktop\KBKM\gambar\senjata.png"
   inkscape:export-xdpi="95.699997"
   inkscape:export-ydpi="95.699997">
  <defs
     id="defs2">
    <filter
       inkscape:collect="always"
       style="color-interpolation-filters:sRGB"
       id="filter1701"
       x="-0.21074578"
       width="1.4214916"
       y="-0.067282121"
       height="1.1345642">
      <feGaussianBlur
         inkscape:collect="always"
         stdDeviation="1.7204136"
         id="feGaussianBlur1703" />
    </filter>
  </defs>
  <sodipodi:namedview
     id="base"
     pagecolor="#ffffff"
     bordercolor="#666666"
     borderopacity="1.0"
     inkscape:pageopacity="0.0"
     inkscape:pageshadow="2"
     inkscape:zoom="0.49497475"
     inkscape:cx="162.67743"
     inkscape:cy="602.3127"
     inkscape:document-units="mm"
     inkscape:current-layer="layer2"
     showgrid="false"
     inkscape:window-width="1366"
     inkscape:window-height="705"
     inkscape:window-x="-8"
     inkscape:window-y="-8"
     inkscape:window-maximized="1" />
  <metadata
     id="metadata5">
    <rdf:RDF>
      <cc:Work
         rdf:about="">
        <dc:format>image/svg+xml</dc:format>
        <dc:type
           rdf:resource="http://purl.org/dc/dcmitype/StillImage" />
        <dc:title />
      </cc:Work>
    </rdf:RDF>
  </metadata>
  <g
     inkscape:label="Layer 1"
     inkscape:groupmode="layer"
     id="layer1" />
  <g
     inkscape:groupmode="layer"
     id="layer2"
     inkscape:label="Layer 2">
    <g
       id="g1760">
      <path
         d="M 177.36418,146.12097 A 70.718285,66.441971 0 0 1 106.76994,212.56284 70.718285,66.441971 0 0 1 35.928047,146.35406 70.718285,66.441971 0 0 1 106.27377,79.679921 70.718285,66.441971 0 0 1 177.36244,145.6548"
         sodipodi:open="true"
         sodipodi:end="6.2761691"
         sodipodi:start="0"
         sodipodi:ry="66.441971"
         sodipodi:rx="70.718285"
         sodipodi:cy="146.12097"
         sodipodi:cx="106.6459"
         sodipodi:type="arc"
         id="path3713"
         style="opacity:0.70899999;fill:#e5e4e3;fill-opacity:1;fill-rule:nonzero;stroke:#000000;stroke-width:1.68192661;stroke-linecap:round;stroke-linejoin:round;stroke-miterlimit:4;stroke-dasharray:none;stroke-dashoffset:0;stroke-opacity:1" />
      <g
         id="g1730">
        <g
           id="g1074">
          <g
             id="g1066">
            <g
               id="g58"
               transform="matrix(0.87495925,0,0,1.3187628,12.458335,-38.060978)"
               style="fill:#ff9955;stroke:#909090;stroke-opacity:1;stroke-linejoin:round;stroke-width:0.62745508;stroke-miterlimit:4;stroke-dasharray:none">
              <rect
                 y="163.47066"
                 x="107.1839"
                 height="10.012148"
                 width="5.0781207"
                 id="rect9"
                 style="fill:#ff9955;fill-rule:evenodd;stroke-width:0.62745508;stroke:#909090;stroke-opacity:1;stroke-linejoin:round;stroke-miterlimit:4;stroke-dasharray:none" />
              <rect
                 transform="matrix(0.85337751,-0.52129341,0.76911283,0.63911302,0,0)"
                 y="201.78717"
                 x="-62.60471"
                 height="7.3704467"
                 width="3.6800995"
                 id="rect9-5"
                 style="fill:#ff9955;fill-rule:evenodd;stroke-width:0.64499964;stroke:#909090;stroke-opacity:1;stroke-linejoin:round;stroke-miterlimit:4;stroke-dasharray:none" />
              <rect
                 transform="matrix(-0.85337752,-0.5212934,-0.76911283,0.63911303,0,0)"
                 y="80.803703"
                 x="-210.86771"
                 height="7.3704462"
                 width="3.6800995"
                 id="rect9-5-2"
                 style="fill:#ff9955;fill-rule:evenodd;stroke-width:0.64499963;stroke:#909090;stroke-opacity:1;stroke-linejoin:round;stroke-miterlimit:4;stroke-dasharray:none" />
            </g>
          </g>
          <path
             sodipodi:nodetypes="ccccsccccccscscccc"
             inkscape:connector-curvature="0"
             id="path60"
             d="m 108.56634,177.51804 c -4.22697,-4.21121 -9.013297,-9.78267 -9.013297,-9.78267 0,0 -4.913677,-3.02381 -4.819184,-6.89807 0.0945,-3.87426 1.984375,-15.68601 1.984375,-15.68601 0,0 3.685256,1.41741 5.291656,6.23661 1.6064,4.81919 1.79539,6.61458 1.79539,6.61458 0,0 0.37797,2.64583 1.6064,2.36235 1.22842,-0.28348 3.30729,0.47247 4.44121,-1.70089 1.13393,-2.17336 2.45685,-2.26786 2.83482,-7.37054 0.37798,-5.10268 0.94495,-9.82738 -0.94493,-14.17411 -1.88989,-4.34672 -8.12649,-13.98511 -8.12649,-13.98511 0,0 -2.64584,-1.7009 -2.64584,-6.80358 0,-5.10267 0.94494,-17.575878 0.94494,-17.575878 0,0 12.66221,12.095228 18.33185,28.159218 5.66964,16.06399 5.29166,17.00893 5.29166,17.00893 0,0 2.26786,6.04762 0.18899,10.77232 -2.07886,4.7247 -7.18154,11.33928 -9.73288,13.70164 -2.55134,2.36235 -7.42867,9.12121 -7.42867,9.12121 z"
             style="fill:#aca793;stroke:#8c8c8c;stroke-width:0.865;stroke-linecap:butt;stroke-linejoin:round;stroke-opacity:1;stroke-miterlimit:4;stroke-dasharray:none" />
        </g>
        <path
           style="opacity:0.70899999;fill:#cad7c1;fill-opacity:1;fill-rule:nonzero;stroke:none;stroke-width:0.67400002;stroke-linecap:round;stroke-linejoin:round;stroke-miterlimit:4;stroke-dasharray:none;stroke-dashoffset:0;stroke-opacity:1"
           id="path1126"
           d="m 102.92349,101.83734 c 0.29395,0.42189 0.6035,0.83482 0.92624,1.23528 0.35981,0.47306 0.89287,0.74927 1.33428,1.13376 0.28699,0.25921 0.60276,0.49572 0.82874,0.81258 0.19285,0.37391 0.30891,0.78069 0.47037,1.16852 0.16817,0.46014 0.33228,0.92106 0.54251,1.3641 0.15917,0.39245 0.33836,0.77345 0.54289,1.14446 0.15946,0.34083 0.38141,0.64026 0.61652,0.93068 0.22149,0.25023 0.47919,0.46189 0.72791,0.68404 0.34438,0.23687 0.66238,0.49624 0.97341,0.77514 0.33665,0.27502 0.68415,0.53993 0.9931,0.84658 0.34142,0.26974 0.62161,0.60541 0.93641,0.9045 0.26236,0.29145 0.50469,0.60391 0.71525,0.93496 0.23265,0.36503 0.40605,0.76322 0.60191,1.14882 0.16924,0.41808 0.30984,0.84572 0.4951,1.25791 0.17509,0.4144 0.31297,0.8424 0.47281,1.26316 0.18758,0.41264 0.33082,0.84297 0.51287,1.25785 0.18364,0.43058 0.3789,0.85549 0.568,1.28372 0.2112,0.47117 0.44172,0.93364 0.61896,1.41901 0.12717,0.42782 0.39564,0.77796 0.60811,1.16167 0.21067,0.37641 0.39855,0.76498 0.5946,1.14909 0.2309,0.40095 0.43422,0.81606 0.65201,1.22424 0.20963,0.3777 0.41062,0.76087 0.65997,1.11438 0.22717,0.40882 0.44081,0.82392 0.67358,1.22966 0.15415,0.31506 0.28191,0.64187 0.41766,0.96519 0.2019,0.38351 0.29166,0.80888 0.46162,1.20479 0.15379,0.44704 0.38533,0.85783 0.62774,1.26102 0.19488,0.35939 0.37915,0.72147 0.50806,1.10993 0.10202,0.37207 0.23706,0.73017 0.3056,1.11096 0.11032,0.305 0.15747,0.62503 0.23276,0.93861 0.10533,0.36019 0.15399,0.73115 0.18235,1.10417 0.0585,0.35215 0.23269,0.66498 0.30983,1.01448 0.12892,0.48352 0.19807,0.97702 0.24123,1.47455 0.0494,0.44652 0.22901,0.86212 0.32597,1.29914 0.0692,0.37757 0.16963,0.74684 0.22402,1.12742 0.0637,0.42444 0.2555,0.80891 0.40025,1.20844 0.15424,0.41826 0.34254,0.82173 0.52588,1.22757 0.16981,0.43371 0.2996,0.87977 0.48563,1.30736 0.17661,0.47445 0.37621,0.9389 0.58346,1.40052 0.18701,0.4037 0.26886,0.83625 0.30931,1.27578 0.0642,0.38046 0.12857,0.75993 0.22414,1.13381 0.0743,0.38204 0.19135,0.75328 0.26955,1.13443 0.0699,0.3763 0.0816,0.7595 0.0895,1.14111 0.005,0.37825 0.003,0.75654 0.002,1.13481 -7.9e-4,0.37796 -10e-4,0.75591 -10e-4,1.13387 -0.008,0.37973 0.019,0.76075 -0.0203,1.13889 -0.0326,0.41115 -0.1805,0.78321 -0.36081,1.14894 -0.19346,0.45276 -0.40892,0.89509 -0.61599,1.34154 -0.19586,0.50205 -0.46783,0.96897 -0.68136,1.46278 -0.13997,0.35768 -0.38863,0.64815 -0.57746,0.97789 -0.23808,0.39522 -0.4795,0.79186 -0.75118,1.16548 -0.28539,0.36342 -0.5636,0.73178 -0.84261,1.10012 -0.30081,0.34706 -0.59549,0.70108 -0.90633,1.03979 -0.21865,0.29726 -0.51179,0.51869 -0.78926,0.75593 -0.26264,0.1833 -0.52084,0.36311 -0.76876,0.56757 -0.29002,0.27799 -0.57827,0.55883 -0.8575,0.84799 -0.27006,0.31334 -0.5287,0.63518 -0.802,0.94557 -0.30841,0.33549 -0.57734,0.70156 -0.83334,1.07764 -0.26633,0.36634 -0.5233,0.74071 -0.81406,1.08841 -0.27759,0.26395 -0.48692,0.58291 -0.70708,0.8931 -0.26103,0.37934 -0.59626,0.6938 -0.91342,1.02398 -0.32027,0.31799 -0.60694,0.66691 -0.8711,1.03233 -0.29136,0.36228 -0.60361,0.70731 -0.90441,1.06219 -0.33207,0.40219 -0.67476,0.79481 -1.03035,1.17653 -0.32566,0.30675 -0.6279,0.63552 -0.89918,0.99128 -0.24572,0.31282 -0.49025,0.61948 -0.68522,0.96747 -0.14564,0.36678 -0.38903,0.67835 -0.56446,1.02997 -0.0828,0.25049 -0.21202,0.47836 -0.33968,0.70751 0,0 -0.85142,0.38084 -0.85142,0.38084 v 0 c 0.12638,-0.22898 0.27224,-0.44855 0.34356,-0.70352 0.16748,-0.35785 0.41571,-0.66564 0.56094,-1.03313 0.18724,-0.35727 0.42823,-0.66881 0.68174,-0.98046 0.26362,-0.36363 0.5658,-0.69743 0.89581,-1.00203 0.36295,-0.3745 0.70043,-0.77224 1.03418,-1.17247 0.29996,-0.35318 0.60133,-0.70411 0.90512,-1.05361 0.25763,-0.37213 0.54619,-0.72356 0.86529,-1.04475 0.31428,-0.33029 0.65463,-0.63615 0.91813,-1.01158 0.22256,-0.30911 0.41867,-0.64078 0.70205,-0.90063 0.30391,-0.33568 0.54925,-0.71948 0.8224,-1.07989 0.25545,-0.37691 0.51517,-0.75073 0.82501,-1.086 0.26969,-0.31562 0.54469,-0.62598 0.8036,-0.95119 0.27728,-0.29234 0.56973,-0.5674 0.84916,-0.85766 0.25201,-0.19765 0.48596,-0.40915 0.76909,-0.56255 0.26726,-0.24861 0.58739,-0.44232 0.79716,-0.74971 0.31438,-0.33466 0.60097,-0.69335 0.91054,-1.03175 0.28051,-0.36616 0.55279,-0.73782 0.84019,-1.09867 0.28405,-0.36201 0.51274,-0.76644 0.75816,-1.15423 0.18004,-0.33551 0.42772,-0.61872 0.58177,-0.96914 0.20757,-0.49798 0.49188,-0.96024 0.68213,-1.46609 0.20363,-0.44798 0.4277,-0.8865 0.61158,-1.34342 0.18422,-0.35474 0.33854,-0.71584 0.37346,-1.11891 0.0509,-0.37366 0.0142,-0.75266 0.0252,-1.12897 1.5e-4,-0.378 5.3e-4,-0.756 0.001,-1.134 8e-4,-0.37768 0.002,-0.75539 -0.002,-1.13306 -0.007,-0.37647 -0.0158,-0.75457 -0.0815,-1.12634 -0.0755,-0.38034 -0.1949,-0.74919 -0.26714,-1.13023 -0.0975,-0.37868 -0.16335,-0.76225 -0.23122,-1.14738 -0.0354,-0.43029 -0.10941,-0.85456 -0.29082,-1.25048 -0.20631,-0.46224 -0.40967,-0.92536 -0.58583,-1.40025 -0.18621,-0.4269 -0.31662,-0.87255 -0.48584,-1.30594 -0.1833,-0.40853 -0.37328,-0.81386 -0.52821,-1.23449 -0.14554,-0.40597 -0.34451,-0.79371 -0.41202,-1.22403 -0.0514,-0.37908 -0.15176,-0.74591 -0.22034,-1.12142 -0.0939,-0.44223 -0.2734,-0.86159 -0.3285,-1.31151 -0.0398,-0.49355 -0.10506,-0.98394 -0.23882,-1.46204 -0.0761,-0.35438 -0.25332,-0.66999 -0.31627,-1.02601 -0.0258,-0.36808 -0.0702,-0.73473 -0.17574,-1.08973 -0.0802,-0.31436 -0.12077,-0.63846 -0.23566,-0.94443 -0.0642,-0.37758 -0.19723,-0.73186 -0.29653,-1.10049 -0.12523,-0.38259 -0.31039,-0.73663 -0.49896,-1.09153 -0.24206,-0.40785 -0.47477,-0.8228 -0.63293,-1.27206 -0.17198,-0.39548 -0.25871,-0.82185 -0.46496,-1.20369 -0.13639,-0.31919 -0.25903,-0.64431 -0.40966,-0.95714 -0.22904,-0.40444 -0.44151,-0.81711 -0.66987,-1.22191 -0.24853,-0.35857 -0.45441,-0.74298 -0.66461,-1.12472 -0.21718,-0.40909 -0.42076,-0.82463 -0.65152,-1.22624 -0.19637,-0.38286 -0.38643,-0.76912 -0.59619,-1.14487 -0.21329,-0.38873 -0.48284,-0.74406 -0.61,-1.17696 -0.17688,-0.48309 -0.40684,-0.94384 -0.61871,-1.4122 -0.18916,-0.42823 -0.38314,-0.85366 -0.56896,-1.28333 -0.1836,-0.41608 -0.32458,-0.84898 -0.51386,-1.26275 -0.1595,-0.41907 -0.30068,-0.84355 -0.47014,-1.25827 -0.1854,-0.41039 -0.32981,-0.83518 -0.4943,-1.25345 -0.19394,-0.38313 -0.36695,-0.77819 -0.59763,-1.14068 -0.20747,-0.32404 -0.44636,-0.63017 -0.70456,-0.91514 -0.31401,-0.30026 -0.59309,-0.63714 -0.9351,-0.90721 -0.30984,-0.30403 -0.65929,-0.56383 -0.99208,-0.84183 -0.31143,-0.27776 -0.63335,-0.53305 -0.97373,-0.77446 -0.25426,-0.22369 -0.51599,-0.43863 -0.73738,-0.69636 -0.23818,-0.29495 -0.46063,-0.60074 -0.62245,-0.94616 -0.20605,-0.37241 -0.38754,-0.75456 -0.54499,-1.14987 -0.21064,-0.44431 -0.37374,-0.90736 -0.54483,-1.3678 -0.15991,-0.38085 -0.27542,-0.77993 -0.4629,-1.14858 -0.22236,-0.30925 -0.53586,-0.53868 -0.81266,-0.7969 -0.44546,-0.38673 -0.97966,-0.67073 -1.34119,-1.14863 -0.32379,-0.40035 -0.63055,-0.81528 -0.93435,-1.23093 0,0 0.80304,-0.47995 0.80304,-0.47995 z"
           inkscape:connector-curvature="0" />
        <path
           style="opacity:0.70899999;fill:#cad7c1;fill-opacity:1;fill-rule:nonzero;stroke:none;stroke-width:0.67400002;stroke-linecap:round;stroke-linejoin:round;stroke-miterlimit:4;stroke-dasharray:none;stroke-dashoffset:0;stroke-opacity:1"
           id="path1128"
           d="m 102.7517,103.69578 c 0.39205,0.34247 0.61858,0.81609 0.89181,1.24917 0.23756,0.42291 0.51087,0.8229 0.78391,1.2229 0.19815,0.32428 0.48367,0.57441 0.74295,0.84639 0.26899,0.28162 0.50751,0.58871 0.77658,0.86993 0.28952,0.22829 0.53719,0.5024 0.76715,0.789 0.19673,0.2672 0.33726,0.56356 0.48482,0.85919 0.18566,0.52234 0.42645,1.01974 0.68847,1.5074 0.23216,0.35296 0.49555,0.68151 0.74388,1.02309 0.25208,0.31399 0.56681,0.56717 0.88316,0.81292 0.30921,0.25625 0.60892,0.51551 0.85039,0.83957 0.29137,0.44275 0.54567,0.91467 0.79192,1.38497 0.18292,0.40102 0.40168,0.78791 0.63004,1.16479 0.18804,0.3513 0.38617,0.69545 0.59369,1.03537 0.19847,0.38017 0.45033,0.72936 0.64913,1.1087 0.14228,0.36776 0.31681,0.72254 0.52376,1.05804 0.20822,0.44981 0.46572,0.87298 0.70307,1.30738 0.25894,0.46745 0.54271,0.92127 0.77642,1.40208 0.23216,0.34704 0.35116,0.7319 0.45432,1.13053 0.10437,0.42115 0.23902,0.8346 0.37766,1.24564 0.099,0.44113 0.26406,0.86124 0.39238,1.29355 0.14847,0.39161 0.29273,0.78811 0.47237,1.16659 0.14908,0.32686 0.27262,0.66329 0.44958,0.97672 0.19539,0.35814 0.3696,0.72719 0.48366,1.11942 0.12556,0.3188 0.24748,0.64188 0.39774,0.94987 0.13888,0.31646 0.24797,0.64062 0.39213,0.95558 0.15895,0.39212 0.29177,0.79534 0.45704,1.1849 0.14287,0.421 0.36663,0.80508 0.53844,1.21347 0.13447,0.42386 0.31153,0.8305 0.50783,1.22859 0.16214,0.41629 0.31578,0.83585 0.50065,1.24276 0.18145,0.3682 0.26018,0.77168 0.36763,1.1647 0.0958,0.41469 0.25341,0.81116 0.37233,1.21929 0.16391,0.45628 0.33534,0.90986 0.50322,1.36483 0.13108,0.43574 0.24402,0.8755 0.38512,1.3084 0.20981,0.51841 0.38874,1.04098 0.50116,1.5893 0.0184,0.4256 0.15318,0.80601 0.29969,1.19877 0.10038,0.35692 0.21072,0.71161 0.28551,1.0752 0.0684,0.37454 0.0786,0.75587 0.0859,1.13549 0.0364,0.39404 0.20232,0.75912 0.28888,1.1441 0.0733,0.37063 0.0829,0.74918 0.0899,1.12566 0.004,0.37779 0.002,0.75562 10e-4,1.13342 -7.9e-4,0.37801 -10e-4,0.75601 -10e-4,1.13402 -1.2e-4,0.37798 -1.1e-4,0.75596 -1.1e-4,1.13395 1e-5,0.37797 2e-5,0.75595 2e-5,1.13392 0,0.37798 0,0.75596 0,1.13393 0,0.37798 0,0.75595 0,1.13393 0,0.37798 0,0.75595 0,1.13393 -0.008,0.37974 0.0191,0.76076 -0.0202,1.13891 -0.0421,0.38301 -0.19637,0.7326 -0.382,1.06524 -0.19504,0.32918 -0.43531,0.62488 -0.68908,0.90987 -0.2515,0.29111 -0.49253,0.59085 -0.74035,0.88492 -0.20365,0.29541 -0.49164,0.50717 -0.7533,0.74573 -0.3063,0.2624 -0.65035,0.47409 -0.95197,0.74239 -0.31099,0.26031 -0.63905,0.49924 -0.96155,0.74528 -0.3574,0.31366 -0.71878,0.61834 -1.09616,0.90856 -0.43646,0.30886 -0.78904,0.70703 -1.1597,1.08695 -0.29785,0.30656 -0.55952,0.64509 -0.81435,0.98751 -0.2918,0.37223 -0.60565,0.72515 -0.88314,1.10867 -0.26683,0.33921 -0.54382,0.6687 -0.80159,1.01487 -0.20711,0.29835 -0.44838,0.57125 -0.67755,0.85297 -0.23669,0.33035 -0.48997,0.64739 -0.72426,0.97962 -0.26764,0.30401 -0.46624,0.65601 -0.68456,0.99445 -0.26005,0.38961 -0.55201,0.75561 -0.80383,1.15086 -0.24156,0.32836 -0.4871,0.65162 -0.70855,0.99433 -0.26483,0.39529 -0.50593,0.80624 -0.75335,1.21273 -0.23647,0.3774 -0.44578,0.77028 -0.67533,1.15177 0,0 -0.85265,0.37804 -0.85265,0.37804 v 0 c 0.22817,-0.38365 0.44669,-0.77234 0.67899,-1.15378 0.24402,-0.40802 0.48902,-0.81666 0.74938,-1.21405 0.22127,-0.34321 0.45357,-0.67606 0.71058,-0.99375 0.24525,-0.39978 0.53935,-0.76379 0.80091,-1.15247 0.22767,-0.3318 0.40387,-0.70084 0.68357,-0.99588 0.22972,-0.33816 0.49149,-0.64899 0.72172,-0.98659 0.22991,-0.28043 0.46836,-0.55525 0.6785,-0.84969 0.26402,-0.34229 0.52433,-0.68539 0.80685,-1.01409 0.2709,-0.38722 0.58109,-0.74146 0.87788,-1.10847 0.25651,-0.34591 0.51707,-0.68915 0.81421,-1.00177 0.37691,-0.37464 0.7148,-0.78899 1.15349,-1.09777 0.3764,-0.2912 0.74845,-0.58213 1.09473,-0.90837 0.32117,-0.24642 0.6441,-0.48715 0.96235,-0.73679 0.29492,-0.27729 0.63478,-0.49159 0.95172,-0.74152 0.25669,-0.24285 0.55659,-0.44069 0.75844,-0.73682 0.25515,-0.28741 0.48781,-0.59508 0.73808,-0.88727 0.26164,-0.27314 0.49466,-0.57155 0.69744,-0.89078 0.18996,-0.31998 0.35122,-0.65791 0.39852,-1.03145 0.0509,-0.37364 0.0142,-0.75265 0.0251,-1.12894 0,-0.37798 0,-0.75596 0,-1.13393 0,-0.37798 0,-0.75595 0,-1.13393 0,-0.37797 0,-0.75595 0,-1.13393 -1e-5,-0.37797 -1e-5,-0.75595 -2e-5,-1.13393 0,-0.37799 -2e-5,-0.75598 9e-5,-1.13397 1.5e-4,-0.37806 2.6e-4,-0.75613 0.001,-1.13418 7.9e-4,-0.37726 0.003,-0.75453 -5.3e-4,-1.13178 -0.006,-0.37073 -0.0129,-0.74353 -0.0812,-1.10915 -0.0847,-0.39197 -0.25132,-0.76161 -0.29747,-1.1606 -0.006,-0.37441 -0.0139,-0.75052 -0.078,-1.12044 -0.0714,-0.35972 -0.18317,-0.70874 -0.27897,-1.06221 -0.14699,-0.39833 -0.28976,-0.78211 -0.30159,-1.2144 -0.10712,-0.54621 -0.28418,-1.06518 -0.49829,-1.57857 -0.14008,-0.432 -0.25825,-0.86908 -0.38335,-1.30541 -0.16695,-0.45766 -0.33867,-0.9133 -0.50651,-1.37047 -0.11737,-0.40905 -0.28021,-0.80408 -0.37487,-1.21949 -0.10584,-0.38846 -0.18217,-0.78754 -0.35897,-1.15237 -0.18525,-0.40574 -0.3385,-0.82453 -0.5,-1.24008 -0.19517,-0.40038 -0.37695,-0.8077 -0.51013,-1.23369 -0.16992,-0.40899 -0.39659,-0.79148 -0.53714,-1.21327 -0.16757,-0.3877 -0.29969,-0.79018 -0.4582,-1.18154 -0.14442,-0.31416 -0.25824,-0.63524 -0.3926,-0.95283 -0.15221,-0.31315 -0.27706,-0.64088 -0.40392,-0.96508 -0.10857,-0.38643 -0.28075,-0.74839 -0.47253,-1.10027 -0.17956,-0.31475 -0.30717,-0.65175 -0.4541,-0.98218 -0.18033,-0.3836 -0.32573,-0.78477 -0.47544,-1.1812 -0.12758,-0.43126 -0.29831,-0.84826 -0.39299,-1.28936 -0.13855,-0.4132 -0.27447,-0.82823 -0.38093,-1.25092 -0.10526,-0.39162 -0.21302,-0.77412 -0.44225,-1.11685 -0.23037,-0.48102 -0.51684,-0.93136 -0.77627,-1.39697 -0.23484,-0.43368 -0.4902,-0.85611 -0.70122,-1.30246 -0.20879,-0.33678 -0.38785,-0.69248 -0.52873,-1.06312 -0.19574,-0.37857 -0.44483,-0.7273 -0.64579,-1.1035 -0.20629,-0.34071 -0.40561,-0.68458 -0.59465,-1.03539 -0.22649,-0.38033 -0.44621,-0.76865 -0.62697,-1.17292 -0.24313,-0.46603 -0.49748,-0.93256 -0.78814,-1.36951 -0.24,-0.31454 -0.53483,-0.56776 -0.83899,-0.81774 -0.32231,-0.25123 -0.63916,-0.5151 -0.89541,-0.83571 -0.25329,-0.34286 -0.51639,-0.67755 -0.74696,-1.0364 -0.26112,-0.48843 -0.50248,-0.9864 -0.69365,-1.50688 -0.1481,-0.28777 -0.28452,-0.57932 -0.47683,-0.8414 -0.22901,-0.28439 -0.47651,-0.55314 -0.76127,-0.78327 -0.2684,-0.28187 -0.50701,-0.58933 -0.77844,-0.86875 -0.26324,-0.27504 -0.54685,-0.53396 -0.74897,-0.86087 -0.27133,-0.40229 -0.54316,-0.80449 -0.78094,-1.22821 -0.26794,-0.42425 -0.48991,-0.89192 -0.88339,-1.21802 0,0 0.79222,-0.49762 0.79222,-0.49762 z"
           inkscape:connector-curvature="0" />
        <path
           style="opacity:0.70899999;fill:#cad7c1;fill-opacity:1;fill-rule:nonzero;stroke:none;stroke-width:0.67400002;stroke-linecap:round;stroke-linejoin:round;stroke-miterlimit:4;stroke-dasharray:none;stroke-dashoffset:0;stroke-opacity:1"
           id="path1130"
           d="m 103.11248,104.29418 c 0.36115,0.42538 0.71071,0.85926 1.05868,1.29549 0.27795,0.39608 0.55215,0.78861 0.87629,1.14745 0.31077,0.3116 0.57712,0.66524 0.90888,0.95466 0.30194,0.27944 0.62217,0.53267 0.93009,0.80486 0.29212,0.28956 0.54445,0.61295 0.76085,0.96202 0.27062,0.33929 0.50409,0.70315 0.7322,1.07201 0.26886,0.48194 0.51569,0.97581 0.79307,1.45306 0.22823,0.44397 0.50509,0.85717 0.79139,1.26492 0.24519,0.34696 0.4251,0.73344 0.6502,1.09207 0.22103,0.38052 0.46395,0.74599 0.73273,1.09431 0.26319,0.34478 0.52671,0.68624 0.76479,1.04923 0.23719,0.27776 0.47269,0.55972 0.73473,0.81467 0.25513,0.24897 0.46728,0.54438 0.68084,0.83034 0.18226,0.2729 0.38164,0.53182 0.58047,0.79254 0.14439,0.23719 0.29717,0.47238 0.48709,0.67588 0.20809,0.25089 0.33262,0.55639 0.50079,0.83356 0.23404,0.3862 0.39089,0.80696 0.58348,1.21335 0.21406,0.48119 0.39928,0.97429 0.60189,1.46015 0.21544,0.48353 0.36479,0.99092 0.54151,1.48872 0.21853,0.5305 0.40683,1.06944 0.64083,1.59358 0.1999,0.54462 0.36961,1.0999 0.61496,1.62633 0.21845,0.40859 0.33671,0.8555 0.4694,1.29615 0.11785,0.37598 0.212,0.75853 0.32026,1.13714 0.10266,0.42919 0.22572,0.85041 0.37195,1.26682 0.17631,0.4208 0.33274,0.84822 0.50961,1.26882 0.2418,0.51635 0.48761,1.02574 0.69756,1.55629 0.18329,0.51367 0.35016,1.03326 0.54535,1.54275 0.22203,0.57752 0.47837,1.14171 0.69318,1.72202 0.18948,0.46566 0.37806,0.9279 0.52779,1.40788 0.18215,0.56076 0.41046,1.10397 0.61299,1.65719 0.13122,0.42483 0.22268,0.86159 0.31826,1.29588 0.14054,0.4071 0.21514,0.8282 0.2619,1.25499 0.0242,0.40716 0.11527,0.80596 0.22694,1.19689 0.087,0.38211 0.2178,0.75001 0.28857,1.13593 0.0494,0.44529 0.0844,0.88679 0.19283,1.32266 0.13012,0.43599 0.20987,0.88206 0.24787,1.33477 0.006,0.52809 0.0863,1.04972 0.14064,1.57393 0.0507,0.51991 0.0647,1.04247 0.0739,1.56447 0.005,0.40385 0.005,0.80774 0.004,1.21161 -5.3e-4,0.37736 -8e-4,0.75472 -8e-4,1.13208 -1.2e-4,0.37754 -1.2e-4,0.75507 -1.2e-4,1.1326 0,0.37796 0,0.75592 0,1.13387 0,0.18899 0,0.37799 0,0.56698 0,0 -0.831,0.42342 -0.831,0.42342 v 0 c 0,-0.189 0,-0.37799 0,-0.56698 -1e-5,-0.37796 -1e-5,-0.75591 -1e-5,-1.13387 0,-0.37754 -10e-6,-0.75508 8e-5,-1.13261 1.3e-4,-0.37741 2.7e-4,-0.75482 10e-4,-1.13223 5.3e-4,-0.40382 0.002,-0.80765 -10e-4,-1.21146 -0.006,-0.52002 -0.0178,-1.04058 -0.0674,-1.5586 -0.054,-0.52439 -0.13871,-1.0459 -0.14451,-1.57407 -0.0363,-0.44784 -0.10915,-0.89035 -0.24009,-1.32123 -0.11457,-0.43696 -0.15187,-0.87969 -0.19679,-1.32792 -0.0694,-0.38328 -0.20141,-0.74741 -0.28526,-1.12729 -0.11344,-0.39569 -0.21027,-0.79915 -0.23353,-1.21164 -0.0434,-0.424 -0.11509,-0.84234 -0.2582,-1.24552 -0.0926,-0.43136 -0.18506,-0.86393 -0.30785,-1.28743 -0.19914,-0.55569 -0.43031,-1.09935 -0.61571,-1.66017 -0.15209,-0.47761 -0.33638,-0.94024 -0.52419,-1.40502 -0.21068,-0.58133 -0.46894,-1.14437 -0.69281,-1.72059 -0.1957,-0.50905 -0.36685,-1.0268 -0.54448,-1.54216 -0.20948,-0.53011 -0.45401,-1.03894 -0.69949,-1.55298 -0.17716,-0.42245 -0.33782,-0.85013 -0.51333,-1.27321 -0.1461,-0.41794 -0.27382,-0.8395 -0.37603,-1.27039 -0.11091,-0.37745 -0.20004,-0.76151 -0.31941,-1.13668 -0.13011,-0.43702 -0.24417,-0.88091 -0.45812,-1.28701 -0.24513,-0.52684 -0.41766,-1.08182 -0.61745,-1.62686 -0.23266,-0.52729 -0.42131,-1.06852 -0.64232,-1.6005 -0.17972,-0.49506 -0.32638,-1.00155 -0.5407,-1.48382 -0.20213,-0.48435 -0.38627,-0.9762 -0.60109,-1.45537 -0.1925,-0.40275 -0.34701,-0.82116 -0.58103,-1.20363 -0.16645,-0.27119 -0.29067,-0.57001 -0.49504,-0.81588 -0.1883,-0.20877 -0.34599,-0.44294 -0.49058,-0.68362 -0.19929,-0.26077 -0.39523,-0.52265 -0.58008,-0.79393 -0.21077,-0.28242 -0.41818,-0.57531 -0.67372,-0.81823 -0.26268,-0.26313 -0.50541,-0.54694 -0.74264,-0.83283 -0.23708,-0.36043 -0.49795,-0.70108 -0.75808,-1.04494 -0.27077,-0.35049 -0.51951,-0.7165 -0.7411,-1.10023 -0.22182,-0.35876 -0.40299,-0.74228 -0.64544,-1.08903 -0.28678,-0.41036 -0.56445,-0.82665 -0.79326,-1.27297 -0.27647,-0.47659 -0.52231,-0.96992 -0.79183,-1.45038 -0.23104,-0.36714 -0.46842,-0.72851 -0.73559,-1.07035 -0.21166,-0.34157 -0.46033,-0.65655 -0.74729,-0.93861 -0.30659,-0.27288 -0.62951,-0.52367 -0.92859,-0.80534 -0.33192,-0.29431 -0.60217,-0.64924 -0.91503,-0.96365 -0.32362,-0.36143 -0.59723,-0.75686 -0.87557,-1.15438 -0.34748,-0.43718 -0.69434,-0.87372 -1.06617,-1.29077 0,0 0.80303,-0.47996 0.80303,-0.47996 z"
           inkscape:connector-curvature="0" />
        <path
           style="opacity:0.70899999;fill:#cad7c1;fill-opacity:1;fill-rule:nonzero;stroke:none;stroke-width:0.67400002;stroke-linecap:round;stroke-linejoin:round;stroke-miterlimit:4;stroke-dasharray:none;stroke-dashoffset:0;stroke-opacity:1"
           id="path1132"
           d="m 103.86843,103.91621 c 0.28875,0.45711 0.64167,0.86683 0.96765,1.29637 0.27436,0.40702 0.61827,0.7539 0.94768,1.11451 0.23856,0.33007 0.54901,0.59646 0.81484,0.90261 0.28628,0.27829 0.49324,0.62237 0.75135,0.92494 0.18563,0.31104 0.42328,0.58077 0.64815,0.86205 0.24908,0.31756 0.51177,0.62366 0.75984,0.94184 0.27755,0.3589 0.50379,0.75592 0.73342,1.14674 0.2261,0.40653 0.46216,0.8014 0.7486,1.1686 0.26422,0.3905 0.58447,0.73836 0.83075,1.14058 0.19523,0.40199 0.36231,0.81616 0.54331,1.22466 0.16089,0.41307 0.38898,0.7906 0.53269,1.21114 0.11205,0.30505 0.20686,0.61367 0.32804,0.91523 0,0 -0.81524,0.45524 -0.81524,0.45524 v 0 c -0.12086,-0.30374 -0.21542,-0.61419 -0.32833,-0.92095 -0.13956,-0.41948 -0.36993,-0.79261 -0.52684,-1.20467 -0.17897,-0.40489 -0.34981,-0.81292 -0.53839,-1.21342 -0.24311,-0.39996 -0.56311,-0.74379 -0.82417,-1.13211 -0.2888,-0.37059 -0.52794,-0.76831 -0.75518,-1.17895 -0.22694,-0.38775 -0.45271,-0.78043 -0.72977,-1.13473 -0.24734,-0.31832 -0.5087,-0.62489 -0.76004,-0.9401 -0.22552,-0.27989 -0.45862,-0.55187 -0.64626,-0.86051 -0.25435,-0.30467 -0.46581,-0.64449 -0.74919,-0.92446 -0.26666,-0.3044 -0.57672,-0.57025 -0.81346,-0.901 -0.33076,-0.36278 -0.67236,-0.71551 -0.94881,-1.12377 -0.32461,-0.4299 -0.67453,-0.84076 -0.97368,-1.28988 0,0 0.80304,-0.47996 0.80304,-0.47996 z"
           inkscape:connector-curvature="0" />
        <path
           style="opacity:0.70899999;fill:#cad7c1;fill-opacity:1;fill-rule:nonzero;stroke:none;stroke-width:0.67400002;stroke-linecap:round;stroke-linejoin:round;stroke-miterlimit:4;stroke-dasharray:none;stroke-dashoffset:0;stroke-opacity:1"
           id="path1134"
           d="m 103.68099,105.6435 c 0.34841,0.49971 0.64697,1.03168 0.95473,1.55675 0.24541,0.41529 0.3908,0.87741 0.55424,1.32856 0.1684,0.42218 0.36884,0.82762 0.59199,1.22279 0.20522,0.34633 0.46748,0.65321 0.71183,0.97154 0.2767,0.35882 0.5773,0.69736 0.86114,1.05053 0.27236,0.32041 0.57879,0.60857 0.86329,0.91719 0.23134,0.27042 0.44351,0.55369 0.65364,0.84059 0.25996,0.36139 0.47856,0.74482 0.68944,1.13626 0.28702,0.53286 0.52016,1.08812 0.74951,1.64738 0.2495,0.76579 0.54223,1.5148 0.84738,2.25979 0.21664,0.48637 0.3532,1.00638 0.57278,1.49046 0.17929,0.37248 0.33738,0.75272 0.4757,1.14207 0.0988,0.21722 0.17618,0.4506 0.31009,0.65041 0.0256,0.0382 0.0485,0.0881 0.0922,0.10242 0.0238,0.008 0.0732,-0.066 0.0505,-0.0556 -0.25936,0.11913 -0.51021,0.25596 -0.76531,0.38394 -7.9e-4,-0.0444 -10e-4,-0.0887 -0.002,-0.13305 0,0 0.82972,-0.43135 0.82972,-0.43135 v 0 c 0.008,0.0559 0.015,0.11169 0.0225,0.16753 -0.27843,0.19295 -0.54324,0.40721 -0.8353,0.57885 -0.14971,0.088 -0.4675,-0.69918 -0.51646,-0.81229 -0.14027,-0.38595 -0.29388,-0.76529 -0.47138,-1.13595 -0.21965,-0.48613 -0.35589,-1.00746 -0.56679,-1.49806 -0.29947,-0.74673 -0.596,-1.49431 -0.84826,-2.25864 -0.23042,-0.55512 -0.46415,-1.10631 -0.74918,-1.63628 -0.21156,-0.38632 -0.42988,-0.76511 -0.68741,-1.12303 -0.2076,-0.28439 -0.42105,-0.56275 -0.64977,-0.83053 -0.28586,-0.30955 -0.58744,-0.60442 -0.86053,-0.92604 -0.28588,-0.35283 -0.5905,-0.68948 -0.867,-1.04979 -0.24633,-0.32235 -0.51014,-0.63365 -0.71812,-0.98323 -0.22344,-0.40071 -0.4243,-0.81147 -0.5972,-1.23702 -0.16441,-0.44515 -0.30208,-0.9042 -0.5422,-1.31642 -0.30513,-0.52445 -0.60018,-1.05752 -0.95977,-1.54743 0,0 0.80615,-0.47237 0.80615,-0.47237 z"
           inkscape:connector-curvature="0" />
        <path
           style="opacity:0.70899999;fill:#cad7c1;fill-opacity:1;fill-rule:nonzero;stroke:none;stroke-width:0.67400002;stroke-linecap:round;stroke-linejoin:round;stroke-miterlimit:4;stroke-dasharray:none;stroke-dashoffset:0;stroke-opacity:1"
           id="path1136"
           d="m 110.82441,116.07307 c 0.17605,0.5923 0.38293,1.17447 0.5766,1.76117 0.17528,0.4335 0.37296,0.85391 0.59071,1.26713 0.20633,0.37138 0.40676,0.7468 0.65336,1.09346 0.24125,0.3862 0.44324,0.79452 0.69471,1.17404 0.29671,0.44042 0.45145,0.95422 0.64738,1.44311 0.17065,0.50041 0.37393,0.98848 0.55354,1.48552 0.21521,0.4424 0.38061,0.90358 0.56529,1.35906 0.18699,0.50642 0.44145,0.9825 0.61541,1.49374 0.23379,0.53384 0.4274,1.0825 0.63628,1.62684 0.2173,0.68122 0.48937,1.34241 0.78724,1.9919 0.17958,0.41631 0.36135,0.83108 0.54528,1.24549 0.22754,0.39101 0.3766,0.81937 0.541,1.23914 0.23459,0.48573 0.42467,0.98871 0.62298,1.48972 0.1557,0.42894 0.25302,0.87567 0.3669,1.3167 0.13893,0.4385 0.17162,0.89781 0.25434,1.34706 0.1514,0.45857 0.25992,0.92367 0.32339,1.40209 0.0875,0.50652 0.27977,0.98672 0.44927,1.46987 0.16585,0.55632 0.35617,1.10352 0.54882,1.65108 0.18423,0.51218 0.42227,0.99954 0.63895,1.49736 0.23982,0.56738 0.47462,1.13713 0.66408,1.72353 0.19213,0.51433 0.30135,1.04695 0.36163,1.59085 0.015,0.46305 0.15094,0.90643 0.26017,1.35278 0.1037,0.45765 0.21749,0.91147 0.28532,1.37625 -0.003,0.42363 0.14016,0.8085 0.25572,1.20806 0.11713,0.42793 0.15581,0.86996 0.17432,1.31146 0.0131,0.43391 0.012,0.86808 0.0116,1.30214 -0.009,0.38681 0.0185,0.77511 -0.0218,1.16029 -0.0542,0.43546 -0.23911,0.83587 -0.41721,1.23169 -0.17043,0.42507 -0.30318,0.86351 -0.48486,1.28427 -0.16851,0.4349 -0.36115,0.8567 -0.58179,1.26761 -0.16603,0.37002 -0.34724,0.72529 -0.57052,1.06427 -0.20303,0.32881 -0.33707,0.69557 -0.4892,1.05022 -0.19541,0.43505 -0.42198,0.85604 -0.64812,1.27585 -0.2471,0.3985 -0.52279,0.78438 -0.82422,1.14397 -0.24541,0.30653 -0.53918,0.5679 -0.78721,0.87179 -0.27237,0.33406 -0.5706,0.64488 -0.85748,0.96594 -0.26895,0.34228 -0.56038,0.65851 -0.90488,0.9252 -0.32008,0.24743 -0.64775,0.48272 -0.95635,0.7448 -0.3894,0.3072 -0.78074,0.61059 -1.16904,0.91911 -0.36025,0.27524 -0.71651,0.55488 -1.07302,0.83501 -0.38707,0.28739 -0.73247,0.60814 -1.04506,0.97398 -0.29106,0.28261 -0.51526,0.62023 -0.76287,0.93917 -0.2334,0.275 -0.47406,0.54449 -0.69824,0.82706 -0.24152,0.29869 -0.49766,0.58472 -0.72114,0.89729 -0.1843,0.32217 -0.41387,0.61405 -0.61628,0.92411 -0.25299,0.35439 -0.48249,0.7119 -0.62035,1.12668 -0.10367,0.36965 -0.11263,0.75491 -0.11946,1.13603 0.006,0.36263 0.007,0.72222 -0.0759,1.07705 -0.125,0.34822 -0.002,0.05 -0.89345,0.37377 0,0 0.82246,-0.45133 0.82246,-0.45133 v 0 c -0.82406,0.52472 -1.03525,0.74345 -0.77525,0.4806 0.10879,-0.34446 0.0943,-0.70085 0.0905,-1.05803 0.005,-0.38886 0.0124,-0.78149 0.10835,-1.16081 0.1285,-0.42451 0.34651,-0.79215 0.60949,-1.14804 0.19449,-0.31729 0.43888,-0.59991 0.61556,-0.92888 0.22016,-0.31674 0.46963,-0.6068 0.71931,-0.90091 0.2161,-0.28759 0.45901,-0.55676 0.69694,-0.82609 0.24425,-0.32344 0.4736,-0.6612 0.76488,-0.94503 0.3118,-0.37124 0.64347,-0.70495 1.03742,-0.99106 0.35626,-0.28076 0.71072,-0.56097 1.07201,-0.83508 0.39357,-0.3009 0.77337,-0.6189 1.17102,-0.91506 0.30602,-0.26647 0.63116,-0.50499 0.95326,-0.75066 0.35312,-0.25219 0.648,-0.56189 0.91146,-0.90632 0.27872,-0.32768 0.58903,-0.62773 0.86076,-0.96227 0.23857,-0.31432 0.53631,-0.57045 0.78536,-0.87582 0.31119,-0.34656 0.57357,-0.73988 0.83276,-1.1258 0.22899,-0.41578 0.45038,-0.83707 0.65171,-1.26678 0.14537,-0.36077 0.2931,-0.72542 0.47973,-1.06603 0.22867,-0.3351 0.41992,-0.6827 0.5761,-1.05746 0.22553,-0.40694 0.42147,-0.82593 0.58631,-1.26107 0.18831,-0.4182 0.31887,-0.85756 0.48427,-1.28471 0.17438,-0.38878 0.36502,-0.77853 0.42631,-1.20485 0.0521,-0.38078 0.0145,-0.76731 0.0274,-1.1508 0.001,-0.43307 0.004,-0.86625 -0.008,-1.29919 -0.018,-0.43436 -0.0498,-0.8701 -0.16397,-1.29164 -0.11697,-0.40347 -0.26973,-0.79081 -0.26207,-1.21955 -0.0638,-0.46285 -0.17639,-0.91376 -0.28025,-1.36868 -0.10867,-0.4505 -0.25321,-0.89659 -0.26503,-1.36411 -0.0551,-0.53865 -0.15938,-1.06675 -0.35034,-1.57556 -0.18426,-0.58483 -0.41874,-1.15142 -0.66134,-1.7142 -0.21832,-0.49976 -0.45346,-0.99057 -0.63906,-1.5048 -0.19508,-0.54667 -0.38656,-1.09338 -0.55017,-1.65035 -0.17449,-0.48795 -0.36799,-0.97419 -0.46138,-1.48569 -0.0598,-0.4771 -0.16529,-0.94129 -0.32271,-1.39633 -0.0863,-0.4466 -0.10844,-0.90603 -0.24905,-1.34248 -0.1165,-0.4367 -0.21108,-0.88014 -0.36199,-1.30701 -0.1952,-0.50242 -0.385,-1.00554 -0.6216,-1.49055 -0.16357,-0.41825 -0.31756,-0.84324 -0.54349,-1.23291 -0.18456,-0.41407 -0.35915,-0.83213 -0.53709,-1.24908 -0.29615,-0.65224 -0.56893,-1.31528 -0.78796,-1.99782 -0.21141,-0.54457 -0.41023,-1.09226 -0.64502,-1.62674 -0.16882,-0.51133 -0.42357,-0.9851 -0.61046,-1.48971 -0.18712,-0.45577 -0.35406,-0.91789 -0.56901,-1.36162 -0.17617,-0.49722 -0.38297,-0.98305 -0.54893,-1.48409 -0.19372,-0.4829 -0.35045,-0.98858 -0.64161,-1.42473 -0.25025,-0.37912 -0.4533,-0.78586 -0.69504,-1.17061 -0.24604,-0.35193 -0.45157,-0.72877 -0.65876,-1.10435 -0.21939,-0.41843 -0.41902,-0.84338 -0.59323,-1.28323 -0.19462,-0.58712 -0.3912,-1.17331 -0.58624,-1.76026 0,0 0.82029,-0.44713 0.82029,-0.44713 z"
           inkscape:connector-curvature="0" />
        <path
           style="opacity:0.70899999;fill:#cad7c1;fill-opacity:1;fill-rule:nonzero;stroke:none;stroke-width:0.67400002;stroke-linecap:round;stroke-linejoin:round;stroke-miterlimit:4;stroke-dasharray:none;stroke-dashoffset:0;stroke-opacity:1"
           id="path1138"
           d="m 102.95776,107.25577 c 0.48134,0.24637 0.86555,0.6254 1.2524,0.99378 0.30885,0.29004 0.51247,0.64808 0.68625,1.02894 0.17829,0.41695 0.46648,0.76622 0.76204,1.10426 0.2994,0.37874 0.60735,0.74968 0.89483,1.13757 0.20545,0.33846 0.47205,0.63251 0.71757,0.94109 0.23677,0.24968 0.46176,0.51206 0.63379,0.81076 0.20742,0.32544 0.41654,0.6478 0.61729,0.9778 0.21616,0.33495 0.39774,0.68852 0.58265,1.04162 0.24391,0.39533 0.49572,0.78535 0.75038,1.1739 0.23357,0.39992 0.4446,0.81191 0.64206,1.23066 0.2057,0.42339 0.44515,0.8253 0.69469,1.2237 0.21387,0.32929 0.42722,0.65576 0.61478,1.00077 0.19451,0.4204 0.44613,0.81235 0.62614,1.23897 0.17756,0.43648 0.32742,0.87934 0.52105,1.30928 0.14359,0.41138 0.30861,0.81281 0.48469,1.21151 0.23394,0.44133 0.35986,0.92513 0.56409,1.37859 0.17823,0.39394 0.31901,0.80265 0.47203,1.20646 0.21093,0.37788 0.32174,0.79579 0.48029,1.19517 0.22184,0.46926 0.46993,0.92496 0.69981,1.39015 0.28693,0.4957 0.52616,1.01609 0.81158,1.51307 0.31839,0.5507 0.62354,1.10848 0.93552,1.66279 0.30078,0.46156 0.52249,0.96395 0.75157,1.46267 0.18452,0.37718 0.35846,0.75326 0.5092,1.14521 0.15361,0.35641 0.18505,0.74238 0.24945,1.11998 0.11576,0.49716 0.2094,0.99957 0.3221,1.49744 0.11816,0.43543 0.24416,0.87022 0.3766,1.30184 0.0937,0.39919 0.24909,0.77155 0.43697,1.13457 0.14491,0.36128 0.3443,0.68889 0.55682,1.01347 0.20598,0.36374 0.43082,0.71765 0.62383,1.0883 0.24853,0.36441 0.46037,0.73617 0.61923,1.14771 0.1158,0.39371 0.32245,0.75031 0.47377,1.12977 0.0775,0.27799 0.0437,0.13689 0.10109,0.42339 0,0 -0.82102,0.4386 -0.82102,0.4386 v 0 c -0.0533,-0.27695 -0.0216,-0.14111 -0.0944,-0.40766 -0.14937,-0.38053 -0.35783,-0.7367 -0.47232,-1.13121 -0.15951,-0.40739 -0.36643,-0.77759 -0.61345,-1.13911 -0.19293,-0.36723 -0.41731,-0.71778 -0.62161,-1.07896 -0.21493,-0.32692 -0.41506,-0.65779 -0.56043,-1.02234 -0.1913,-0.36735 -0.35204,-0.74394 -0.44541,-1.14894 -0.13498,-0.43333 -0.25547,-0.87275 -0.37673,-1.30979 -0.11452,-0.49857 -0.20465,-1.00294 -0.32711,-1.49975 -0.0691,-0.37051 -0.0905,-0.75248 -0.24241,-1.10344 -0.15124,-0.38951 -0.31787,-0.76736 -0.50155,-1.14296 -0.22761,-0.49678 -0.44857,-0.99656 -0.74747,-1.4565 -0.30863,-0.55574 -0.61201,-1.11424 -0.93312,-1.66291 -0.28668,-0.49835 -0.53066,-1.01834 -0.81633,-1.51686 -0.23251,-0.46659 -0.48085,-0.9248 -0.70571,-1.39527 -0.16146,-0.3988 -0.27075,-0.81781 -0.48277,-1.19567 -0.15352,-0.40162 -0.29029,-0.80988 -0.46811,-1.20205 -0.20665,-0.45293 -0.32444,-0.94004 -0.56364,-1.37966 -0.17775,-0.39785 -0.34626,-0.7977 -0.48554,-1.21058 -0.19317,-0.43118 -0.34465,-0.87393 -0.5209,-1.31189 -0.17805,-0.42394 -0.42877,-0.81303 -0.62517,-1.22877 -0.18727,-0.3428 -0.39633,-0.67005 -0.60962,-0.99737 -0.25033,-0.40212 -0.49137,-0.80758 -0.69941,-1.23375 -0.19444,-0.41554 -0.40652,-0.82188 -0.63609,-1.21916 -0.25492,-0.39185 -0.50969,-0.7836 -0.75566,-1.18104 -0.18484,-0.35087 -0.36661,-0.70211 -0.58032,-1.03629 -0.20063,-0.33095 -0.41304,-0.65203 -0.6194,-0.97909 -0.1698,-0.29507 -0.39787,-0.54824 -0.62745,-0.79834 -0.24579,-0.30955 -0.51003,-0.60664 -0.71565,-0.9459 -0.28594,-0.38589 -0.59231,-0.75488 -0.89015,-1.13164 -0.30141,-0.34491 -0.59518,-0.70153 -0.7788,-1.12592 -0.16775,-0.37079 -0.36566,-0.71786 -0.66542,-1.00021 -0.3786,-0.3659 -0.7605,-0.73766 -1.24257,-0.96678 0,0 0.78116,-0.51398 0.78116,-0.51398 z"
           inkscape:connector-curvature="0" />
        <path
           style="opacity:0.70899999;fill:#b7c8b7;fill-opacity:1;fill-rule:nonzero;stroke:none;stroke-width:0.67400002;stroke-linecap:round;stroke-linejoin:round;stroke-miterlimit:4;stroke-dasharray:none;stroke-dashoffset:0;stroke-opacity:1"
           id="path1140"
           d="m 103.4149,102.85531 c -0.007,0.57985 -0.004,1.15978 -0.003,1.73966 10e-4,0.42792 0.002,0.85585 0.002,1.28377 1.9e-4,0.37798 1.7e-4,0.75596 1.7e-4,1.13394 0.009,0.37555 -0.0207,0.75282 0.02,1.12668 0.0216,0.37666 0.2221,0.56875 0.53615,0.73647 0.40626,0.14492 0.81685,0.29009 1.20881,0.47056 0.40312,0.16259 0.7421,0.44091 1.08705,0.69878 0.32756,0.28283 0.64642,0.57441 0.97048,0.86138 0.24778,0.26593 0.50454,0.52081 0.77234,0.76662 0.0432,0.0473 0.0865,0.0946 0.12969,0.14187 0,0 -0.79723,0.4841 -0.79723,0.4841 v 0 c -0.0419,-0.045 -0.0837,-0.09 -0.12558,-0.13505 -0.26836,-0.24438 -0.52125,-0.50218 -0.77068,-0.76573 -0.32279,-0.28406 -0.63535,-0.57843 -0.96309,-0.85674 -0.34257,-0.25263 -0.6807,-0.52044 -1.07939,-0.68004 -0.39728,-0.17636 -0.80826,-0.32211 -1.21469,-0.47585 -0.32918,-0.18938 -0.55201,-0.41308 -0.57969,-0.81312 -0.049,-0.37651 -0.0159,-0.75749 -0.0252,-1.13649 0,-0.37803 -2e-5,-0.75607 1.7e-4,-1.13411 2.7e-4,-0.42861 8e-4,-0.85722 0.002,-1.28582 10e-4,-0.57885 0.004,-1.15774 -0.003,-1.73656 0,0 0.83278,-0.42432 0.83278,-0.42432 z"
           inkscape:connector-curvature="0" />
        <path
           style="opacity:0.70899999;fill:#b7c8b7;fill-opacity:1;fill-rule:nonzero;stroke:none;stroke-width:0.67400002;stroke-linecap:round;stroke-linejoin:round;stroke-miterlimit:4;stroke-dasharray:none;stroke-dashoffset:0;stroke-opacity:1"
           id="path1142"
           d="m 103.49201,109.61225 c 0.29889,0.42958 0.63303,0.82296 1.00361,1.1916 0.35983,0.36094 0.77954,0.65752 1.21059,0.92685 0.44981,0.29334 0.92073,0.55222 1.37012,0.84591 0.36132,0.2659 0.62115,0.62751 0.85916,1.0013 0.18523,0.37279 0.40118,0.72144 0.63334,1.06563 0.22907,0.40576 0.4605,0.81137 0.67585,1.22499 0.1997,0.39502 0.3883,0.79507 0.58287,1.19285 0.23338,0.41433 0.44207,0.84229 0.69211,1.24697 0.19029,0.33457 0.34833,0.68371 0.59777,0.97959 0.20406,0.2583 0.36851,0.54077 0.5185,0.83277 0.20982,0.38179 0.43954,0.75197 0.65774,1.12887 0.23983,0.42857 0.48816,0.85184 0.72742,1.28088 0.26304,0.39777 0.47806,0.8251 0.74728,1.2191 0.23229,0.33668 0.39105,0.71558 0.62529,1.05078 0.19628,0.28071 0.31546,0.60843 0.41594,0.93378 0.14707,0.33662 0.26701,0.68394 0.36433,1.03797 0.10171,0.40354 0.10383,0.81863 0.21218,1.22018 0.17993,0.42096 0.32957,0.8528 0.48109,1.28448 0.15984,0.47568 0.35423,0.93809 0.56541,1.39306 0.20024,0.47201 0.44731,0.92073 0.61532,1.40587 0.16533,0.43151 0.37754,0.84167 0.53229,1.27775 0.10936,0.44659 0.31698,0.85836 0.48824,1.28271 0.16162,0.39393 0.34173,0.7806 0.49587,1.17744 0.1178,0.36514 0.2746,0.7213 0.47008,1.05175 0.21101,0.3525 0.36358,0.73868 0.48818,1.12933 0.18872,0.42271 0.34261,0.85709 0.5002,1.29262 0.20313,0.53155 0.37522,1.07308 0.55116,1.61409 0.1604,0.46064 0.15423,0.95316 0.28754,1.4192 0.1511,0.46216 0.26936,0.93652 0.36577,1.41308 0.0994,0.54174 0.0963,1.09199 0.20626,1.63171 0.13985,0.55965 0.31452,1.10626 0.41176,1.67586 0.0859,0.56046 0.0654,1.12858 0.10958,1.69204 0.0413,0.53944 0.13296,1.07056 0.22916,1.6021 0.0661,0.49777 0.12777,0.99498 0.20437,1.49155 0.0682,0.42719 0.0945,0.85891 0.10795,1.29075 0.01,0.41685 0.007,0.83386 0.005,1.25078 0.0157,0.46906 -0.0666,0.93169 -0.23712,1.36762 -0.16847,0.37858 -0.32199,0.76401 -0.46408,1.1532 -0.18848,0.43147 -0.35457,0.87296 -0.56902,1.29239 -0.21022,0.41225 -0.42325,0.82214 -0.68645,1.2033 -0.21212,0.37867 -0.46217,0.72816 -0.728,1.06966 -0.27414,0.35156 -0.53109,0.71548 -0.79602,1.07381 -0.28303,0.35404 -0.54664,0.71839 -0.8724,1.03495 -0.29047,0.27399 -0.61941,0.50177 -0.90851,0.77727 -0.39905,0.32695 -0.86139,0.55009 -1.30818,0.80878 -0.0634,0.0367 -0.25443,0.14525 -0.19054,0.10943 0.62778,-0.35198 0.81542,-0.47268 0.38405,-0.20478 -2.46645,1.41529 -0.639,0.36192 -0.42757,0.25356 0.0751,-0.0385 -0.14101,0.0926 -0.21268,0.13707 -0.21077,0.13072 -0.42554,0.25349 -0.63466,0.38703 -0.46207,0.33152 -2.07751,1.14665 -0.65497,0.38357 0.0787,-0.0422 -0.1509,0.0958 -0.22689,0.14279 -0.33776,0.20901 -0.1022,0.0538 -0.41182,0.26394 -0.37416,0.2281 -0.70126,0.51876 -1.04257,0.79063 -0.31399,0.26893 -0.58295,0.58813 -0.8514,0.90178 -0.18369,0.29396 -0.40363,0.56236 -0.59595,0.85038 -0.20654,0.35817 -0.45489,0.68943 -0.63992,1.05979 -0.14268,0.37756 -0.31253,0.74359 -0.47262,1.114 -0.14486,0.44902 -0.37038,0.86431 -0.52734,1.30834 -0.15234,0.42304 -0.30969,0.84492 -0.41927,1.28146 -0.0477,0.26919 -0.12223,0.53246 -0.1834,0.79872 0,0 -0.83961,0.40452 -0.83961,0.40452 v 0 c 0.0596,-0.26746 0.13904,-0.53018 0.18378,-0.80069 0.10493,-0.43997 0.26116,-0.86461 0.41535,-1.28905 0.15062,-0.44909 0.38765,-0.86032 0.52367,-1.31504 0.16436,-0.36902 0.33192,-0.73766 0.47092,-1.11684 0.17576,-0.37848 0.42936,-0.70772 0.63393,-1.06983 0.18502,-0.29638 0.42091,-0.55524 0.59151,-0.86101 0.26348,-0.32219 0.54593,-0.63413 0.84658,-0.92112 0.34702,-0.26512 0.66225,-0.57277 1.04118,-0.79547 0.4062,-0.29045 2.68042,-1.59389 1.0884,-0.67185 -0.0688,0.0398 0.1367,-0.0811 0.20505,-0.12171 0.35336,-0.23235 2.97138,-1.78669 1.2747,-0.77948 0.52514,-0.32638 0.21437,-0.13565 1.20494,-0.7162 0.0633,-0.0371 0.25422,-0.14689 0.191,-0.10959 -0.20306,0.11982 -0.40415,0.24316 -0.61055,0.35714 -0.11693,0.0646 0.43118,-0.27435 0.33218,-0.22412 0.28381,-0.28406 0.6121,-0.51186 0.9106,-0.77938 0.33162,-0.30979 0.598,-0.66634 0.87896,-1.02127 0.27163,-0.35231 0.51657,-0.72456 0.7933,-1.07336 0.26032,-0.34526 0.5364,-0.67744 0.73211,-1.06733 0.26906,-0.37502 0.48355,-0.78113 0.69188,-1.19237 0.22138,-0.41326 0.37762,-0.85521 0.57436,-1.28041 0.13506,-0.39198 0.2909,-0.77803 0.45952,-1.15681 0.18767,-0.41856 0.26734,-0.87739 0.25564,-1.33567 -7.9e-4,-0.41565 5.3e-4,-0.83134 -0.007,-1.24694 -0.0114,-0.42883 -0.0341,-0.85777 -0.0995,-1.28231 -0.075,-0.49607 -0.14318,-0.99152 -0.20334,-1.48941 -0.0947,-0.53502 -0.19059,-1.06836 -0.23031,-1.61126 -0.0502,-0.56053 -0.0252,-1.1261 -0.10777,-1.68444 -0.093,-0.56944 -0.26607,-1.11521 -0.40873,-1.67312 -0.11662,-0.53936 -0.11368,-1.08843 -0.20794,-1.63165 -0.0953,-0.47411 -0.21532,-0.94521 -0.36416,-1.40526 -0.13593,-0.46551 -0.13254,-0.95497 -0.28483,-1.41745 -0.17296,-0.54091 -0.34406,-1.08155 -0.54741,-1.61196 -0.16173,-0.4351 -0.31697,-0.87042 -0.50772,-1.29337 -0.1199,-0.38469 -0.27048,-0.76438 -0.47641,-1.11144 -0.1982,-0.33422 -0.36308,-0.69373 -0.48015,-1.06404 -0.15105,-0.3976 -0.32926,-0.78498 -0.4914,-1.17818 -0.17143,-0.42567 -0.38434,-0.83716 -0.4907,-1.28612 -0.15255,-0.43734 -0.36864,-0.84601 -0.53296,-1.27837 -0.16276,-0.48397 -0.41003,-0.92886 -0.6087,-1.3983 -0.21271,-0.45749 -0.40965,-0.92187 -0.57271,-1.39952 -0.15078,-0.43403 -0.29875,-0.86874 -0.48332,-1.29003 -0.11545,-0.40108 -0.11869,-0.81423 -0.21329,-1.22018 -0.0957,-0.35347 -0.21933,-0.6984 -0.36472,-1.03454 -0.0959,-0.31673 -0.21311,-0.63488 -0.40186,-0.90873 -0.23079,-0.33771 -0.39245,-0.71505 -0.62334,-1.05294 -0.26732,-0.39826 -0.48691,-0.82579 -0.74979,-1.22673 -0.24073,-0.42773 -0.48577,-0.85238 -0.72649,-1.27991 -0.21882,-0.37825 -0.45318,-0.74746 -0.66471,-1.12999 -0.14816,-0.28499 -0.30681,-0.56325 -0.50792,-0.81513 -0.25046,-0.30091 -0.40994,-0.65393 -0.60092,-0.99329 -0.25163,-0.40721 -0.46024,-0.83844 -0.69701,-1.2543 -0.19735,-0.39553 -0.38099,-0.79739 -0.5803,-1.19179 -0.21576,-0.40951 -0.44346,-0.8133 -0.67405,-1.21415 -0.23228,-0.34505 -0.44707,-0.69534 -0.63292,-1.06856 -0.23153,-0.36182 -0.48434,-0.71328 -0.83632,-0.96887 -0.4503,-0.29149 -0.91913,-0.55315 -1.36938,-0.84492 -0.43408,-0.27713 -0.85998,-0.57477 -1.22161,-0.94411 -0.37399,-0.37406 -0.70706,-0.77671 -1.01849,-1.20426 0,0 0.80614,-0.47237 0.80614,-0.47237 z"
           inkscape:connector-curvature="0" />
        <path
           style="opacity:0.70899999;fill:#b7c8b7;fill-opacity:1;fill-rule:nonzero;stroke:none;stroke-width:0.67400002;stroke-linecap:round;stroke-linejoin:round;stroke-miterlimit:4;stroke-dasharray:none;stroke-dashoffset:0;stroke-opacity:1"
           id="path1144"
           d="m 104.05897,109.04528 c 0.25598,0.5031 0.56132,0.97814 0.85493,1.45942 0.29631,0.39958 0.44255,0.85554 0.5264,1.33916 0.0322,0.35193 0.25836,0.67997 0.25207,1.03594 0,0 -0.85141,0.40293 -0.85141,0.40293 v 0 c 0.0962,-0.0949 -0.21359,-0.8308 -0.22258,-1.00274 -0.0767,-0.47409 -0.2169,-0.9184 -0.50682,-1.30969 -0.29099,-0.48142 -0.59135,-0.95725 -0.85873,-1.45264 0,0 0.80614,-0.47238 0.80614,-0.47238 z"
           inkscape:connector-curvature="0" />
        <path
           style="opacity:0.70899999;fill:#b7c8b7;fill-opacity:1;fill-rule:nonzero;stroke:none;stroke-width:0.67400002;stroke-linecap:round;stroke-linejoin:round;stroke-miterlimit:4;stroke-dasharray:none;stroke-dashoffset:0;stroke-opacity:1"
           id="path1146"
           d="m 103.11248,110.71978 c 0.30893,0.50793 0.68738,0.97409 1.07202,1.42654 0.29873,0.31925 0.6194,0.62001 0.9597,0.89497 0.38605,0.27329 0.7155,0.61261 1.07466,0.91768 0.33065,0.31916 0.67443,0.62321 0.96526,0.9803 0.25851,0.33088 0.5445,0.63936 0.79329,0.97818 0.24446,0.32435 0.5063,0.6373 0.77398,0.94328 0.27467,0.29661 0.48171,0.62816 0.66673,0.98557 0.22499,0.37775 0.4289,0.7678 0.66476,1.13913 0.24756,0.42544 0.50486,0.84578 0.74015,1.27804 0.2536,0.38258 0.42427,0.80939 0.63034,1.21774 0.28194,0.55316 0.51972,1.12641 0.84546,1.65619 0.28264,0.43419 0.5466,0.87925 0.79169,1.33572 0.25989,0.38875 0.48572,0.79765 0.7147,1.20479 0.26394,0.45206 0.50593,0.91806 0.75299,1.38003 0.24204,0.46156 0.38119,0.96411 0.57123,1.44685 0.16545,0.50563 0.38232,0.98971 0.5922,1.47775 0.18064,0.51628 0.4076,1.01321 0.63121,1.51163 0.19357,0.44479 0.23996,0.93251 0.32766,1.4052 0.0845,0.56073 0.26399,1.10109 0.43786,1.63906 0.17862,0.59071 0.41191,1.16205 0.61162,1.74544 0.16418,0.50895 0.27555,1.03225 0.43537,1.5422 0.17333,0.62879 0.40909,1.237 0.57936,1.86662 0.14528,0.38315 0.26294,0.7705 0.31929,1.17657 0.0791,0.40951 0.21332,0.80433 0.30242,1.21162 0.0737,0.45577 0.18224,0.90392 0.24407,1.36183 0.0324,0.55759 0.10791,1.11102 0.16641,1.6663 0.0523,0.48038 0.0684,0.96318 0.0759,1.44597 0.005,0.42273 0.004,0.8455 0.004,1.26825 -2.7e-4,0.38135 -5.3e-4,0.7627 -8e-4,1.14405 2.4e-4,0.43367 -0.002,0.86733 -0.002,1.301 -0.0234,0.45334 0.0351,0.90072 0.13217,1.34242 0.103,0.4725 0.2377,0.93691 0.33214,1.41127 0.0766,0.40686 0.0942,0.82077 0.10359,1.2336 0.006,0.41709 0.002,0.83424 0.002,1.25136 -8e-4,0.40925 -1.2e-4,0.81851 -0.001,1.22777 -0.0266,0.52901 -0.16916,1.04081 -0.26597,1.55919 -0.10971,0.421 -0.19729,0.84681 -0.31299,1.26615 -0.11629,0.3678 -0.12569,0.75437 -0.18564,1.13193 -0.0681,0.39806 -0.25685,0.76939 -0.47627,1.10487 -0.21459,0.30158 -0.44682,0.59544 -0.70791,0.85846 -0.26275,0.24175 -0.49727,0.5119 -0.75502,0.75842 -0.26698,0.23677 -0.49972,0.50781 -0.75665,0.75449 -0.26868,0.22192 -0.47465,0.48711 -0.67408,0.76944 -0.25077,0.33597 -0.5581,0.61729 -0.85208,0.91324 -0.32547,0.2908 -0.5713,0.65193 -0.88647,0.95283 -0.2948,0.29474 -0.58976,0.58808 -0.89153,0.87557 -0.3214,0.32537 -0.63613,0.65725 -0.95541,0.98471 -0.39438,0.33181 -0.82894,0.61152 -1.24158,0.91945 -0.34846,0.27414 -0.68909,0.5544 -1.00483,0.86616 -0.29336,0.26308 -0.54544,0.56526 -0.77804,0.882 -0.28749,0.35624 -0.2578,0.35037 -0.98833,0.65509 -0.12915,0.0539 -0.16701,-0.41664 -0.19333,-0.76071 0,0 0.8147,-0.42377 0.8147,-0.42377 v 0 c 0.0122,0.13295 0.0193,0.26647 0.0367,0.39884 0.0615,0.46757 0.4323,0.0833 -0.63479,0.62561 -0.0495,0.0252 0.0733,-0.0835 0.10999,-0.1252 0.23131,-0.32003 0.47357,-0.63526 0.77345,-0.89525 0.30997,-0.32081 0.6527,-0.60051 1.0006,-0.87848 0.40582,-0.31551 0.84244,-0.5906 1.24791,-0.9073 0.31903,-0.32689 0.63438,-0.65729 0.95156,-0.98597 0.29706,-0.29257 0.60548,-0.5733 0.89118,-0.87812 0.32861,-0.28986 0.56273,-0.65808 0.8898,-0.94861 0.28623,-0.29941 0.60009,-0.56941 0.85468,-0.89858 0.20239,-0.28452 0.38992,-0.56724 0.66676,-0.78746 0.26664,-0.23661 0.48732,-0.52036 0.75657,-0.75466 0.26728,-0.23617 0.48967,-0.51893 0.75592,-0.75648 0.271,-0.24917 0.49483,-0.54946 0.71632,-0.84162 0.22858,-0.31558 0.41331,-0.68522 0.49217,-1.0678 0.0701,-0.37838 0.0647,-0.76999 0.18219,-1.14066 0.1164,-0.41793 0.20459,-0.84171 0.31944,-1.2603 0.0949,-0.5137 0.23826,-1.01957 0.27142,-1.54287 -0.001,-0.40932 5.3e-4,-0.81864 0.001,-1.22796 10e-4,-0.41625 0.002,-0.83252 -0.002,-1.24875 -0.008,-0.40824 -0.0217,-0.8177 -0.0938,-1.22064 -0.091,-0.47433 -0.22742,-0.93716 -0.33107,-1.40869 -0.10429,-0.44673 -0.16384,-0.90166 -0.14074,-1.36133 -2.6e-4,-0.43309 -0.002,-0.86617 -0.002,-1.29927 1.5e-4,-0.38145 5.3e-4,-0.76291 0.001,-1.14437 7.9e-4,-0.42266 0.002,-0.84533 -0.001,-1.26799 -0.007,-0.48077 -0.0208,-0.96174 -0.0687,-1.44048 -0.0559,-0.55418 -0.13751,-1.1054 -0.16982,-1.66161 -0.0581,-0.45624 -0.16512,-0.9021 -0.24006,-1.35533 -0.0871,-0.4103 -0.22398,-0.8061 -0.3082,-1.21695 -0.0516,-0.40349 -0.16574,-0.78844 -0.30735,-1.16958 -0.16424,-0.63006 -0.4,-1.23637 -0.5774,-1.86258 -0.16395,-0.50825 -0.27412,-1.03111 -0.4345,-1.54071 -0.196,-0.58518 -0.43227,-1.15605 -0.61183,-1.74696 -0.17324,-0.5417 -0.36054,-1.08401 -0.44621,-1.64798 -0.0866,-0.4657 -0.13254,-0.94585 -0.31718,-1.38598 -0.22145,-0.49985 -0.45016,-0.99679 -0.62946,-1.51405 -0.2099,-0.48892 -0.43346,-0.97103 -0.59511,-1.47907 -0.19175,-0.47861 -0.32572,-0.97905 -0.56522,-1.43835 -0.24552,-0.46188 -0.49106,-0.92531 -0.7547,-1.37664 -0.22925,-0.40779 -0.45554,-0.81696 -0.71435,-1.20723 -0.24305,-0.45545 -0.50908,-0.89734 -0.78595,-1.3329 -0.32419,-0.53341 -0.56676,-1.10665 -0.85139,-1.66108 -0.20871,-0.40607 -0.38051,-0.83106 -0.63024,-1.21478 -0.23493,-0.4301 -0.48972,-0.84939 -0.73633,-1.27299 -0.23808,-0.37322 -0.44662,-0.76399 -0.67297,-1.14415 -0.18028,-0.35123 -0.38438,-0.67568 -0.65338,-0.96706 -0.27011,-0.30743 -0.53361,-0.62236 -0.77876,-0.94971 -0.24835,-0.33695 -0.53354,-0.64421 -0.78969,-0.97489 -0.28804,-0.35231 -0.62997,-0.65059 -0.95611,-0.96653 -0.35607,-0.30801 -0.68987,-0.64116 -1.07534,-0.91422 -0.34352,-0.27919 -0.66528,-0.58693 -0.96446,-0.91278 -0.38104,-0.45732 -0.757,-0.92407 -1.0808,-1.42398 0,0 0.80303,-0.47996 0.80303,-0.47996 z"
           inkscape:connector-curvature="0" />
        <path
           style="opacity:0.70899999;fill:#b7c8b7;fill-opacity:1;fill-rule:nonzero;stroke:none;stroke-width:0.67400002;stroke-linecap:round;stroke-linejoin:round;stroke-miterlimit:4;stroke-dasharray:none;stroke-dashoffset:0;stroke-opacity:1"
           id="path1148"
           d="m 119.85621,143.3217 c 0.0332,0.69629 0.11852,1.38815 0.25328,2.07176 0.12932,0.65332 0.23935,1.30507 0.41675,1.94758 0.15539,0.50031 0.22047,1.01833 0.25664,1.53883 0.0605,0.42478 0.13309,0.84742 0.22399,1.26671 0.10535,0.44294 0.13836,0.89615 0.15894,1.34942 0.0151,0.41469 0.0148,0.82972 0.0148,1.24462 -5.3e-4,0.38006 -0.001,0.76011 -0.001,1.14016 -2.7e-4,0.37753 -2.7e-4,0.75506 -2.7e-4,1.13259 -1e-5,0.37791 0,0.75583 0,1.13375 -0.008,0.37974 0.0192,0.76076 -0.0201,1.13891 -0.0599,0.39294 -0.19837,0.77029 -0.33168,1.14345 -0.19618,0.51467 -0.44017,1.0091 -0.65777,1.51499 -0.22319,0.41376 -0.45885,0.82163 -0.69174,1.23048 -0.23351,0.37373 -0.48927,0.72974 -0.77267,1.06698 -0.26102,0.47515 -2.76848,1.75474 -1.01592,0.77463 -0.63728,0.44204 -1.33998,0.76912 -2.0286,1.1193 -0.32344,0.16506 -0.67113,0.27613 -1.0013,0.42558 -0.16008,0.0725 -1.04776,0.58011 0.42074,-0.2448 -0.33916,0.19486 -0.63315,0.45408 -0.91254,0.72524 -0.29169,0.28974 -0.60023,0.56217 -0.87578,0.86762 -0.28702,0.32154 -0.53156,0.67864 -0.77098,1.03627 -0.22796,0.35064 -0.47816,0.68381 -0.75117,1.00055 -0.27094,0.31869 -0.48721,0.6798 -0.68894,1.04497 -0.21781,0.39805 -0.46556,0.77818 -0.70657,1.16221 -0.21232,0.35728 -0.36571,0.7419 -0.51477,1.12838 -0.17417,0.40607 -0.35172,0.81024 -0.51632,1.22039 -0.1549,0.43954 -0.35489,0.85801 -0.5614,1.27483 -0.0866,0.16333 -0.0417,0.0973 -0.1244,0.20487 0,0 -0.87059,0.35396 -0.87059,0.35396 v 0 c 0.1138,-0.0639 0.0552,-0.0157 0.1465,-0.17425 0.20335,-0.41704 0.41932,-0.82711 0.56633,-1.26904 0.16157,-0.41063 0.33556,-0.81511 0.51482,-1.21819 0.14704,-0.39194 0.30198,-0.78009 0.50873,-1.14522 0.23628,-0.38565 0.49119,-0.76001 0.70864,-1.15719 0.1974,-0.37117 0.41624,-0.73443 0.67814,-1.06386 0.28302,-0.30594 0.52746,-0.64336 0.75849,-0.98958 0.24022,-0.35908 0.48043,-0.72115 0.76454,-1.04736 0.27213,-0.31103 0.57856,-0.58606 0.87511,-0.87319 0.27163,-0.28104 0.56731,-0.54414 0.90394,-0.74487 0.32587,-0.19027 0.64915,-0.38506 0.97761,-0.57082 0.37803,-0.2138 0.81611,-0.30955 1.19391,-0.52531 0.24166,-0.12227 0.26322,-0.13462 0.49975,-0.24893 0.0741,-0.0358 0.29133,-0.15178 0.22281,-0.10621 -1.17473,0.78116 -0.55871,0.30233 -0.28477,0.15325 0.32214,-0.19061 0.64549,-0.37917 0.96641,-0.57182 0.20163,-0.12103 -0.40753,0.23489 -0.60852,0.35699 -0.0596,0.0362 0.12522,-0.0619 0.18416,-0.0992 0.19174,-0.12119 0.16046,-0.12188 0.32072,-0.2803 0.0539,-0.0533 0.11022,-0.10412 0.16533,-0.15618 0.28523,-0.33231 0.54133,-0.68334 0.77813,-1.05167 0.24173,-0.40174 0.45498,-0.82184 0.70037,-1.22164 0.21495,-0.50433 0.45753,-0.99613 0.65525,-1.50742 0.13083,-0.36845 0.27238,-0.73844 0.34009,-1.12442 0.0509,-0.37365 0.0142,-0.75265 0.0251,-1.12895 -10e-6,-0.37792 -2e-5,-0.75584 -10e-6,-1.13375 10e-6,-0.37755 2e-5,-0.7551 2.6e-4,-1.13265 2.7e-4,-0.38012 0.001,-0.76023 0.002,-1.14033 5.3e-4,-0.41402 0.002,-0.82815 -0.011,-1.24201 -0.0184,-0.44831 -0.0493,-0.89685 -0.15158,-1.33526 -0.0929,-0.42358 -0.16797,-0.8498 -0.23026,-1.27911 -0.0317,-0.51543 -0.0923,-1.02855 -0.24315,-1.52469 -0.17665,-0.64537 -0.29193,-1.29822 -0.41667,-1.95515 -0.13816,-0.6877 -0.21872,-1.38303 -0.27258,-2.08223 0,0 0.83147,-0.42366 0.83147,-0.42366 z"
           inkscape:connector-curvature="0" />
        <path
           style="opacity:0.70899999;fill:#b7c8b7;fill-opacity:1;fill-rule:nonzero;stroke:none;stroke-width:0.67400002;stroke-linecap:round;stroke-linejoin:round;stroke-miterlimit:4;stroke-dasharray:none;stroke-dashoffset:0;stroke-opacity:1"
           id="path1150"
           d="m 115.65947,165.61111 c -0.14058,0.6036 -0.34675,1.19061 -0.61768,1.74763 -0.27711,0.4352 -0.52161,0.88988 -0.83175,1.30303 -0.48503,0.58669 -1.18189,0.93142 -1.87388,1.22117 -0.4816,0.17566 -0.94386,0.41143 -1.45809,0.47092 -0.27258,-0.0144 -0.30792,-0.13498 -0.40407,-0.37259 0,0 0.8117,-0.45308 0.8117,-0.45308 v 0 c 0.0815,0.20941 0.10473,0.27297 0.33835,0.26767 0.50514,-0.0836 0.96671,-0.30936 1.44219,-0.49021 0.27731,-0.12326 1.06393,-0.49548 -0.192,0.17223 -0.0596,0.0317 0.10594,-0.0838 0.15561,-0.12942 0.11227,-0.10324 0.20855,-0.22312 0.32662,-0.32045 0.32209,-0.40243 0.55158,-0.86305 0.84188,-1.2875 0.27828,-0.54607 0.493,-1.12755 0.61722,-1.72859 0,0 0.8439,-0.40081 0.8439,-0.40081 z"
           inkscape:connector-curvature="0" />
        <path
           style="opacity:0.70899999;fill:#b7c8b7;fill-opacity:1;fill-rule:nonzero;stroke:none;stroke-width:0.67400002;stroke-linecap:round;stroke-linejoin:round;stroke-miterlimit:4;stroke-dasharray:none;stroke-dashoffset:0;stroke-opacity:1"
           id="path1152"
           d="m 113.88126,165.38448 c -0.71093,0.4857 -1.4774,0.88696 -2.22097,1.31853 -0.16353,0.0949 0.33058,-0.18367 0.49587,-0.27551 -0.36258,0.27196 -0.86231,0.53228 -1.04625,0.97395 0.5256,-0.08 1.03761,-0.22809 1.55845,-0.33368 0.25165,0.0337 0.95194,-0.3377 1.15654,-0.19744 0.0295,0.0202 0.0343,0.0628 0.0514,0.0943 -0.0157,0.0513 -0.0194,0.10793 -0.047,0.1539 -0.0353,0.0587 -0.31075,0.33571 -0.33855,0.36429 -0.22573,0.23206 -0.46152,0.45238 -0.69341,0.67824 -0.36666,0.36076 -0.75133,0.69723 -1.04748,1.12043 -0.18623,0.17068 -0.35493,0.76443 -0.56226,0.87045 -0.29161,0.14912 -0.59453,0.27501 -0.89179,0.41251 -0.0227,-0.0585 -0.0453,-0.11692 -0.068,-0.17539 0,0 0.81863,-0.45248 0.81863,-0.45248 v 0 c 0.01,0.0344 0.0197,0.0687 0.0296,0.10307 -0.25261,0.15441 -0.50521,0.30882 -0.75782,0.46323 0.0317,-0.0205 0.0694,-0.0337 0.095,-0.0614 0.20983,-0.22613 0.28549,-0.55341 0.48473,-0.78792 0.28619,-0.43834 0.6705,-0.77867 1.04553,-1.13985 0.36929,-0.36423 0.7414,-0.72551 1.11293,-1.08716 -0.33675,-0.0598 -0.75782,0.19612 -1.12313,0.19853 -0.30975,0.0652 -1.30494,0.36305 -1.562,0.27917 -0.0478,-0.0156 -0.073,-0.0692 -0.10951,-0.10373 0.12185,-0.47537 0.67699,-0.75973 1.03402,-1.03999 2.92791,-1.72139 0.71602,-0.42268 0.61913,-0.3618 -0.1029,0.0646 0.21155,-0.1197 0.31588,-0.18202 0.26373,-0.15753 0.5324,-0.31027 0.78038,-0.49178 0,0 0.87011,-0.34046 0.87011,-0.34046 z"
           inkscape:connector-curvature="0" />
        <path
           style="opacity:0.70899999;fill:#b7c8b7;fill-opacity:1;fill-rule:nonzero;stroke:none;stroke-width:0.67400002;stroke-linecap:round;stroke-linejoin:round;stroke-miterlimit:4;stroke-dasharray:none;stroke-dashoffset:0;stroke-opacity:1"
           id="path1154"
           d="m 115.09401,163.70016 c -0.18943,0.58597 -0.42221,1.14793 -0.72229,1.68564 -0.26088,0.47128 -0.54875,0.9262 -0.81978,1.39171 -0.20606,0.36621 -0.47479,0.69405 -0.76823,0.99341 -0.27757,0.30095 -0.51175,0.63546 -0.7443,0.97118 -0.30844,0.4636 -0.60593,0.9356 -0.88726,1.41619 -0.22013,0.4525 -0.42373,0.91211 -0.65113,1.36096 -0.1697,0.34919 -0.24356,0.7325 -0.37431,1.09648 -0.20356,0.47866 -0.38052,0.96753 -0.57939,1.44814 -0.18734,0.32751 -0.34049,0.65932 -0.4141,1.03001 0,0 -0.83947,0.40854 -0.83947,0.40854 v 0 c 0.0654,-0.37935 0.20125,-0.72449 0.41008,-1.0498 0.19963,-0.4788 0.37755,-0.96516 0.57774,-1.44354 0.14042,-0.36436 0.20798,-0.75133 0.37146,-1.10679 0.2289,-0.45012 0.44266,-0.90658 0.652,-1.36645 0.27221,-0.48661 0.58497,-0.95118 0.88234,-1.42272 0.23369,-0.3378 0.46373,-0.6767 0.73446,-0.98638 0.30318,-0.28343 0.56771,-0.61529 0.78061,-0.97112 0.26947,-0.46826 0.5622,-0.9213 0.82532,-1.39325 0.30403,-0.52846 0.5437,-1.07987 0.71935,-1.66447 0,0 0.8469,-0.39774 0.8469,-0.39774 z"
           inkscape:connector-curvature="0" />
        <path
           style="opacity:0.70899999;fill:#b7c8b7;fill-opacity:1;fill-rule:nonzero;stroke:none;stroke-width:0.67400002;stroke-linecap:round;stroke-linejoin:round;stroke-miterlimit:4;stroke-dasharray:none;stroke-dashoffset:0;stroke-opacity:1"
           id="path1156"
           d="m 107.53396,174.22097 c 0.15775,-0.59384 0.33093,-1.18253 0.51871,-1.76794 0.20862,-0.54792 0.28131,-1.12598 0.38227,-1.69845 0.0635,-0.47121 0.27453,-0.89574 0.49766,-1.30874 0.22792,-0.41312 0.42307,-0.84091 0.60331,-1.27655 0.20701,-0.41604 0.49226,-0.79196 0.77743,-1.15744 0.50422,-0.7386 1.08747,-1.01218 1.87441,-1.46005 0.3803,-0.14667 0.77122,-0.25841 1.15973,-0.38026 0.4082,-0.15962 0.80802,-0.33929 1.20727,-0.52031 0.2899,-0.09 1.15917,-0.57875 -0.0781,0.11083 -0.0669,0.0373 0.13277,-0.0766 0.19817,-0.11661 0.18776,-0.11477 0.19198,-0.1222 0.37207,-0.24929 0.57621,-0.46691 1.24339,-0.80349 1.89259,-1.15579 -1.55006,0.88106 0.17549,-0.0984 0.37366,-0.21912 0.20531,-0.12511 -0.41413,0.24548 -0.63038,0.35056 -0.0599,0.0291 0.10693,-0.0793 0.15856,-0.12129 0.16646,-0.13535 0.15175,-0.12952 0.29797,-0.2829 0.29915,-0.34336 0.42669,-0.77907 0.56578,-1.20264 0.1222,-0.37525 0.15858,-0.76756 0.17854,-1.15924 0.0135,-0.37743 0.0108,-0.75519 0.01,-1.13279 -10e-4,-0.37782 -0.002,-0.75565 -0.002,-1.13348 -2.7e-4,-0.37797 -2.7e-4,-0.75594 -2.7e-4,-1.13392 0,-0.37797 1e-5,-0.75595 2e-5,-1.13393 0,-0.37798 0,-0.75595 0,-1.13393 0,-0.37797 0,-0.75595 0,-1.13393 -0.0278,-0.38551 0.0533,-0.76163 0.11081,-1.14015 0.0576,-0.48244 0.20912,-0.94933 0.34567,-1.41432 0.1465,-0.45347 0.23109,-0.92074 0.27508,-1.39419 0.0286,-0.38497 0.0275,-0.77129 0.0276,-1.15707 -8e-4,-0.37713 -0.002,-0.75425 -0.003,-1.13138 -5.3e-4,-0.3778 -5.3e-4,-0.7556 -5.3e-4,-1.13341 -2e-5,-0.37798 0,-0.75596 0,-1.13393 1.1e-4,-0.47053 0.002,-0.94104 0.002,-1.41156 -2.7e-4,-0.46824 -0.001,-0.93648 -0.002,-1.40472 -5.3e-4,-0.38528 -5.3e-4,-0.77055 -5.3e-4,-1.15583 -0.008,-0.42708 0.0232,-0.85615 -0.0197,-1.28159 -0.0277,-0.38675 -0.21209,-0.72251 -0.36209,-1.07017 -0.12938,-0.36896 -0.29706,-0.71339 -0.51151,-1.03938 -0.21868,-0.3885 -0.48733,-0.74452 -0.74099,-1.11019 -0.32722,-0.39733 -0.57448,-0.84775 -0.83603,-1.2891 -0.27274,-0.45624 -0.49774,-0.94511 -0.6954,-1.43869 -0.21594,-0.46342 -0.38695,-0.94502 -0.58972,-1.4139 -0.23297,-0.55771 -0.43397,-1.1282 -0.63742,-1.69726 -0.21064,-0.56905 -0.46465,-1.12043 -0.68472,-1.68554 -0.18233,-0.45072 -0.34275,-0.90871 -0.54581,-1.35099 -0.19665,-0.51091 -0.44767,-0.99655 -0.6548,-1.50316 -0.20126,-0.4974 -0.37859,-1.00036 -0.59995,-1.48939 -0.1504,-0.3654 -0.27468,-0.74036 -0.41797,-1.1082 -0.13246,-0.40133 -0.34745,-0.76467 -0.53671,-1.13952 -0.21489,-0.44324 -0.46338,-0.867 -0.69961,-1.29866 -0.27596,-0.47516 -0.55191,-0.94875 -0.80365,-1.43735 -0.24249,-0.50695 -0.5054,-0.99866 -0.72261,-1.51711 -0.21048,-0.45085 -0.46104,-0.88201 -0.75492,-1.28339 -0.26097,-0.39405 -0.55696,-0.76214 -0.83393,-1.14467 -0.24825,-0.33805 -0.54812,-0.63275 -0.83688,-0.93514 -0.27472,-0.26988 -0.52275,-0.55958 -0.79677,-0.83204 -0.27755,-0.27136 -0.57445,-0.51164 -0.89505,-0.72954 -0.3668,-0.23467 -0.71496,-0.49608 -1.0735,-0.74278 -0.4027,-0.24469 -0.77369,-0.53111 -1.17393,-0.77961 0,0 0.78268,-0.50463 0.78268,-0.50463 v 0 c 0.40071,0.24975 0.76939,0.54268 1.17552,0.78413 0.35677,0.24952 0.70933,0.50412 1.0749,0.74082 0.32489,0.22086 0.62163,0.47016 0.90253,0.74506 0.27555,0.27197 0.52549,0.56147 0.80013,0.83301 0.29153,0.3053 0.59014,0.60648 0.84076,0.94755 0.27683,0.38242 0.57278,0.75036 0.833,1.14471 0.29772,0.40768 0.55097,0.84548 0.76472,1.3029 0.21606,0.51619 0.47527,1.00708 0.71658,1.51184 0.25378,0.48669 0.52908,0.9599 0.80591,1.43372 0.23608,0.43278 0.48508,0.85745 0.70272,1.30032 0.19081,0.37719 0.40728,0.74326 0.5431,1.14612 0.14357,0.36624 0.26548,0.74068 0.41229,1.10597 0.22011,0.4909 0.39721,0.99492 0.60031,1.49281 0.20774,0.50483 0.45279,0.99156 0.65309,1.49941 0.20673,0.44297 0.36677,0.90319 0.54928,1.35613 0.21532,0.56794 0.46888,1.12072 0.68135,1.68993 0.20243,0.567 0.40634,1.13401 0.63813,1.68968 0.20579,0.46875 0.3733,0.95282 0.59139,1.4165 0.19274,0.49051 0.41884,0.97346 0.68861,1.42599 0.25849,0.44057 0.50799,0.88694 0.8338,1.28246 0.25416,0.36618 0.5234,0.72258 0.74398,1.11076 0.21973,0.32941 0.38559,0.68095 0.52123,1.05316 0.15181,0.35643 0.34097,0.70069 0.37322,1.09554 0.0503,0.42777 0.0132,0.86002 0.0255,1.29005 -4e-5,0.38545 -9e-5,0.7709 -5.3e-4,1.15635 -5.3e-4,0.46892 -0.002,0.93783 -0.002,1.40675 2e-4,0.46968 0.002,0.93935 0.002,1.40902 -1e-5,0.37797 -2e-5,0.75595 -1e-5,1.13393 4e-5,0.37775 7e-5,0.75552 5.3e-4,1.13328 5.3e-4,0.37716 0.002,0.75433 0.003,1.1315 1.8e-4,0.38844 0.002,0.77737 -0.025,1.16512 -0.0417,0.47943 -0.12295,0.95333 -0.27088,1.41258 -0.1368,0.45994 -0.28722,0.92332 -0.34642,1.40033 -0.0551,0.37489 -0.14517,0.74601 -0.11687,1.12771 0,0.37798 0,0.75595 0,1.13393 0,0.37798 -1e-5,0.75595 -1e-5,1.13393 0,0.37798 -10e-6,0.75596 -2e-5,1.13393 1e-5,0.37795 0,0.7559 2.6e-4,1.13385 2.7e-4,0.37778 8e-4,0.75556 0.002,1.13335 0.001,0.379 0.004,0.75814 -0.008,1.13702 -0.0178,0.39872 -0.0501,0.79873 -0.16914,1.18223 -0.13836,0.43138 -0.26456,0.87635 -0.54904,1.23854 -0.41062,0.47075 -0.84019,0.64381 -1.4093,0.99924 -0.12262,0.0766 2.52276,-1.47757 -0.375,0.2179 -0.39075,0.20882 -0.26386,0.14453 0.42667,-0.26358 0.0613,-0.0362 -0.12211,0.0731 -0.18338,0.10925 -0.19706,0.11639 -0.1798,0.0965 -0.36545,0.23842 -0.0613,0.0469 -0.11993,0.0971 -0.1799,0.14566 -0.64164,0.47264 -1.34693,0.87085 -2.08383,1.17384 -0.40154,0.18122 -0.80266,0.36523 -1.21751,0.5143 -0.38563,0.12277 -0.77779,0.22731 -1.14853,0.39237 1.36464,-0.81668 0.5621,-0.34844 0.40495,-0.23023 -0.27257,0.20501 -0.49782,0.47149 -0.70074,0.74289 -0.28882,0.35569 -0.55859,0.73392 -0.78526,1.13204 -0.17774,0.43968 -0.37432,0.86972 -0.60085,1.2866 -0.22125,0.40535 -0.44412,0.81886 -0.51064,1.2824 -0.10948,0.57506 -0.16727,1.16102 -0.38286,1.71203 -0.18771,0.58264 -0.36708,1.16673 -0.50582,1.76298 0,0 -0.8469,0.39774 -0.8469,0.39774 z"
           inkscape:connector-curvature="0" />
        <path
           style="opacity:0.70899999;fill:#b7c8b7;fill-opacity:1;fill-rule:nonzero;stroke:none;stroke-width:0.67400002;stroke-linecap:round;stroke-linejoin:round;stroke-miterlimit:4;stroke-dasharray:none;stroke-dashoffset:0;stroke-opacity:1"
           id="path1158"
           d="m 105.04178,111.09027 c 0.52327,0.42942 1.08261,0.81046 1.64706,1.18288 0.40927,0.32353 0.89374,0.51298 1.34804,0.7582 0.44566,0.23362 0.71302,0.62195 0.895,1.0777 0.44116,0.84205 -0.72547,1.19122 -1.41688,1.17474 -0.43687,-0.0158 -0.86453,-0.0964 -1.29241,-0.17866 0,0 0.75758,-0.52889 0.75758,-0.52889 v 0 c 0.42467,0.0804 0.85039,0.15605 1.28418,0.16233 0.092,-0.004 0.1849,0.003 0.276,-0.0106 0.0757,-0.0111 0.28017,-0.11051 0.22096,-0.0621 -0.19187,0.15697 -0.41958,0.26413 -0.62937,0.3962 0.0288,-0.0406 0.0752,-0.0733 0.0863,-0.12185 0.0256,-0.11115 -0.0646,-0.28957 -0.099,-0.37791 -0.17076,-0.43972 -0.42926,-0.80327 -0.86013,-1.02225 -0.45804,-0.24263 -0.93863,-0.44439 -1.34982,-0.76785 -0.56351,-0.38093 -1.12346,-0.76705 -1.65897,-1.18699 0,0 0.79146,-0.49494 0.79146,-0.49494 z"
           inkscape:connector-curvature="0" />
        <path
           style="fill:#d0d9c8;fill-opacity:1;stroke:none;stroke-width:0.26458332px;stroke-linecap:butt;stroke-linejoin:miter;stroke-opacity:1;filter:url(#filter1701)"
           d="m 105.2685,107.23101 c 0,0 14.33082,18.28324 16.18733,23.80793 1.85651,5.52469 4.20276,11.25401 3.13874,20.01953 -1.06402,8.76552 -14.28523,24.31498 -14.28523,24.31498 l -4.27598,-3.11302 c 0,0 11.37903,-12.37284 13.44551,-16.86916 2.06648,-4.49632 -2.97733,-23.36766 -2.97733,-23.36766 l -11.07982,-12.64032 z"
           id="path1175"
           inkscape:connector-curvature="0"
           transform="matrix(1.094604,0,0,1.0713022,-11.812336,-12.02151)"
           sodipodi:nodetypes="cssccsccc" />
      </g>
    </g>
  </g>
</svg>
